<svg width="500" height="476" viewBox="0 0 500 476" fill="none" xmlns="http://www.w3.org/2000/svg">
<path d="M452.282 106.763C450.623 104.001 448.898 101.291 447.096 98.641C423.099 63.381 383.149 39.2409 344.323 28.308C327.314 23.511 309.851 21.002 292.418 20.361C178.074 16.206 136.068 110.485 99.2283 134.793C62.3883 159.102 5.85432 200.622 12.9483 287.842C18.3313 354.158 56.0573 417.568 124.957 446.423C132.546 449.611 140.52 452.378 148.869 454.674C164.4 458.947 181.232 461.629 199.369 462.436C251.461 464.757 293.758 452.2 335.132 420.579C344.749 413.229 354.315 404.938 366.796 404.03C375.868 403.37 384.469 406.629 374.986 415.396C363.841 425.701 376.701 445.968 404.992 431.887C452.243 408.37 471.681 357.631 480.838 306.037C492.078 242.708 486.629 163.952 452.282 106.763Z" fill="#007AFF"/>
<path opacity="0.7" d="M452.282 106.763C450.623 104.001 448.898 101.291 447.096 98.641C423.099 63.381 383.149 39.2409 344.323 28.308C327.314 23.511 309.851 21.002 292.418 20.361C178.074 16.206 136.068 110.485 99.2283 134.793C62.3883 159.102 5.85432 200.622 12.9483 287.842C18.3313 354.158 56.0573 417.568 124.957 446.423C132.546 449.611 140.52 452.378 148.869 454.674C164.4 458.947 181.232 461.629 199.369 462.436C251.461 464.757 293.758 452.2 335.132 420.579C344.749 413.229 354.315 404.938 366.796 404.03C375.868 403.37 384.469 406.629 374.986 415.396C363.841 425.701 376.701 445.968 404.992 431.887C452.243 408.37 471.681 357.631 480.838 306.037C492.078 242.708 486.629 163.952 452.282 106.763Z" fill="white"/>
<path d="M432.766 124.636C432.766 124.636 427.518 102.769 396.904 98.3951C366.29 94.0221 361.917 120.262 355.794 123.761C349.671 127.26 346.173 117.638 336.551 118.513C326.929 119.388 321.681 127.26 317.308 130.759C312.935 134.258 305.062 123.762 298.94 125.511C292.817 127.26 287.569 136.007 287.569 136.007H465.13C465.13 136.007 459.007 126.386 450.26 122.887C441.513 119.388 438.014 124.636 432.766 124.636Z" stroke="#263238" stroke-miterlimit="10" stroke-linecap="round" stroke-linejoin="round"/>
<path d="M137.986 190.3C137.986 190.3 134.224 174.626 112.28 171.491C90.3362 168.356 87.2012 187.165 82.8122 189.673C78.4232 192.181 75.9152 185.284 69.0192 185.911C62.1222 186.538 58.3602 192.181 55.2252 194.689C52.0902 197.197 46.4472 189.673 42.0582 190.927C37.6692 192.181 33.9072 198.451 33.9072 198.451H161.184C161.184 198.451 156.795 191.554 150.525 189.046C144.256 186.538 141.748 190.3 137.986 190.3Z" stroke="#263238" stroke-miterlimit="10" stroke-linecap="round" stroke-linejoin="round"/>
<path d="M195.215 57.848C195.215 57.848 192.831 47.916 178.927 45.93C165.023 43.944 163.036 55.862 160.255 57.451C157.474 59.04 155.885 54.67 151.515 55.067C147.145 55.464 144.761 59.04 142.775 60.629C140.789 62.218 137.213 57.451 134.432 58.245C131.651 59.04 129.267 63.012 129.267 63.012H209.915C209.915 63.012 207.134 58.642 203.161 57.053C199.188 55.465 197.598 57.848 195.215 57.848Z" stroke="#263238" stroke-miterlimit="10" stroke-linecap="round" stroke-linejoin="round"/>
<path d="M309.446 78.324C322.14 78.324 332.431 68.0333 332.431 55.339C332.431 42.6447 322.14 32.354 309.446 32.354C296.752 32.354 286.461 42.6447 286.461 55.339C286.461 68.0333 296.752 78.324 309.446 78.324Z" stroke="#263238" stroke-miterlimit="10" stroke-linecap="round" stroke-linejoin="round"/>
<path d="M309.445 16.771V26.12" stroke="#263238" stroke-miterlimit="10" stroke-linecap="round" stroke-linejoin="round"/>
<path d="M309.445 86.115V95.465" stroke="#263238" stroke-miterlimit="10" stroke-linecap="round" stroke-linejoin="round"/>
<path d="M337.269 28.2949L330.658 34.9069" stroke="#263238" stroke-miterlimit="10" stroke-linecap="round" stroke-linejoin="round"/>
<path d="M288.235 77.3289L281.624 83.9399" stroke="#263238" stroke-miterlimit="10" stroke-linecap="round" stroke-linejoin="round"/>
<path d="M348.792 56.1179H339.442" stroke="#263238" stroke-miterlimit="10" stroke-linecap="round" stroke-linejoin="round"/>
<path d="M279.449 56.1179H270.099" stroke="#263238" stroke-miterlimit="10" stroke-linecap="round" stroke-linejoin="round"/>
<path d="M337.269 83.9399L330.658 77.3289" stroke="#263238" stroke-miterlimit="10" stroke-linecap="round" stroke-linejoin="round"/>
<path d="M288.235 34.9069L281.624 28.2949" stroke="#263238" stroke-miterlimit="10" stroke-linecap="round" stroke-linejoin="round"/>
<path d="M364.867 183.22C364.867 183.22 369.484 182.066 370.868 182.527C372.253 182.989 369.95 184.625 369.95 184.625C369.95 184.625 371.099 185.297 371.792 186.912C372.484 188.528 369.492 187.832 369.492 187.832C369.492 187.832 370.407 188.99 369.484 189.913C368.561 190.836 364.406 186.22 364.406 186.22C364.406 186.22 361.405 188.067 358.635 187.836C355.865 187.605 354.249 186.913 352.403 184.143C350.557 181.373 349.171 179.988 349.171 179.988L347.324 179.296L350.094 177.68C350.094 177.68 352.402 175.603 354.71 175.833C357.018 176.064 357.942 176.756 357.942 176.756C357.942 176.756 359.327 173.063 361.404 171.678C363.481 170.293 369.945 168.446 372.022 167.292C374.099 166.138 373.638 167.985 372.945 169.139C372.252 170.293 370.175 171.216 369.252 171.678C368.329 172.14 374.099 172.371 373.176 173.525C372.253 174.679 368.79 175.141 368.79 175.141C368.79 175.141 372.022 176.295 371.329 177.218C370.636 178.141 367.867 178.141 367.867 178.141C367.867 178.141 368.79 180.449 367.405 180.449C366.02 180.449 366.02 180.449 366.02 180.449C366.02 180.449 366.714 183.682 364.867 183.22Z" fill="#007AFF" stroke="#263238" stroke-miterlimit="10" stroke-linecap="round" stroke-linejoin="round"/>
<path d="M357.943 176.757C357.943 176.757 356.096 173.064 357.02 170.756C357.943 168.448 366.484 162.446 366.253 164.755C366.022 167.063 363.714 168.448 363.714 168.448C363.714 168.448 367.176 167.294 367.176 168.217C367.176 169.14 367.176 169.14 367.176 169.14C367.176 169.14 363.252 170.063 361.405 171.679C359.559 173.294 357.943 176.757 357.943 176.757Z" fill="#263238" stroke="#263238" stroke-miterlimit="10" stroke-linecap="round" stroke-linejoin="round"/>
<path d="M352.54 179.242C352.919 179.242 353.227 178.934 353.227 178.555C353.227 178.175 352.919 177.868 352.54 177.868C352.16 177.868 351.853 178.175 351.853 178.555C351.853 178.934 352.16 179.242 352.54 179.242Z" fill="#263238"/>
<path d="M361.811 185.61C361.396 187.01 359.195 187.591 356.895 186.909C354.595 186.227 353.068 184.539 353.484 183.139C353.899 181.739 356.1 181.158 358.4 181.84C360.699 182.522 362.226 184.21 361.811 185.61Z" fill="white" stroke="#263238" stroke-width="0.5" stroke-miterlimit="10" stroke-linecap="round" stroke-linejoin="round"/>
<path d="M135.272 124.058C135.272 124.058 130.655 122.904 129.27 123.365C127.885 123.827 130.189 125.463 130.189 125.463C130.189 125.463 129.04 126.135 128.347 127.75C127.655 129.366 130.647 128.67 130.647 128.67C130.647 128.67 129.732 129.828 130.655 130.751C131.578 131.674 135.733 127.058 135.733 127.058C135.733 127.058 138.734 128.905 141.504 128.674C144.274 128.443 145.89 127.751 147.736 124.981C149.582 122.211 150.968 120.826 150.968 120.826L152.815 120.133L150.045 118.517C150.045 118.517 147.737 116.44 145.428 116.67C143.12 116.901 142.196 117.593 142.196 117.593C142.196 117.593 140.811 113.9 138.734 112.515C136.657 111.13 130.193 109.283 128.116 108.129C126.039 106.975 126.5 108.821 127.193 109.976C127.885 111.13 129.963 112.053 130.886 112.515C131.809 112.977 126.039 113.207 126.962 114.362C127.885 115.516 131.348 115.978 131.348 115.978C131.348 115.978 128.116 117.132 128.809 118.055C129.502 118.978 132.271 118.978 132.271 118.978C132.271 118.978 131.348 121.286 132.733 121.286C134.118 121.286 134.118 121.286 134.118 121.286C134.118 121.286 133.426 124.52 135.272 124.058Z" fill="#007AFF" stroke="#263238" stroke-miterlimit="10" stroke-linecap="round" stroke-linejoin="round"/>
<path d="M142.197 117.595C142.197 117.595 144.044 113.902 143.12 111.594C142.197 109.286 133.656 103.284 133.887 105.593C134.118 107.901 136.426 109.286 136.426 109.286C136.426 109.286 132.964 108.132 132.964 109.055C132.964 109.978 132.964 109.978 132.964 109.978C132.964 109.978 136.888 110.901 138.735 112.517C140.581 114.132 142.197 117.595 142.197 117.595Z" fill="#263238" stroke="#263238" stroke-miterlimit="10" stroke-linecap="round" stroke-linejoin="round"/>
<path d="M146.912 119.393C146.912 119.773 147.22 120.08 147.599 120.08C147.979 120.08 148.286 119.772 148.286 119.393C148.286 119.013 147.978 118.706 147.599 118.706C147.22 118.706 146.912 119.014 146.912 119.393Z" fill="#263238"/>
<path d="M138.328 126.448C138.743 127.848 140.944 128.429 143.244 127.747C145.543 127.064 147.071 125.377 146.655 123.977C146.24 122.577 144.039 121.996 141.739 122.678C139.44 123.36 137.913 125.048 138.328 126.448Z" fill="white" stroke="#263238" stroke-width="0.5" stroke-miterlimit="10" stroke-linecap="round" stroke-linejoin="round"/>
<path d="M122.877 295.967C122.877 295.967 113.75 281.454 97.2093 272.876C80.6683 264.299 73.6153 255.829 82.1993 256.334C92.6143 256.947 116.201 265.217 126.922 294.318C131.548 306.875 122.877 295.967 122.877 295.967Z" fill="#007AFF" stroke="#263238" stroke-miterlimit="10" stroke-linecap="round" stroke-linejoin="round"/>
<path d="M122.328 292.175C122.328 292.175 114.057 275.633 98.4346 267.669" stroke="#263238" stroke-miterlimit="10" stroke-linecap="round" stroke-linejoin="round"/>
<path d="M132.824 306.002C132.824 306.002 127.607 291.411 130.75 274.865C133.893 258.32 131.813 248.578 127.378 254.96C121.997 262.704 114.701 284.085 129.394 307.956C135.733 318.256 132.824 306.002 132.824 306.002Z" fill="#007AFF" stroke="#263238" stroke-miterlimit="10" stroke-linecap="round" stroke-linejoin="round"/>
<path d="M130.436 303.494C130.436 303.494 123.3 288.378 126.365 272.828" stroke="#263238" stroke-miterlimit="10" stroke-linecap="round" stroke-linejoin="round"/>
<path d="M123.554 288.669C123.554 288.669 118.337 274.078 121.48 257.532C124.623 240.987 122.543 231.245 118.108 237.627C112.727 245.37 105.431 266.752 120.124 290.623C126.463 300.923 123.554 288.669 123.554 288.669Z" fill="#007AFF" stroke="#263238" stroke-miterlimit="10" stroke-linecap="round" stroke-linejoin="round"/>
<path d="M122.328 292.175C122.328 292.175 114.03 271.045 117.095 255.495" stroke="#263238" stroke-miterlimit="10" stroke-linecap="round" stroke-linejoin="round"/>
<path d="M331.196 277.89C331.196 277.89 340.323 263.377 356.864 254.799C373.406 246.222 380.458 237.753 371.874 238.257C361.459 238.87 337.872 247.14 327.15 276.241C322.525 288.798 331.196 277.89 331.196 277.89Z" fill="#007AFF" stroke="#263238" stroke-miterlimit="10" stroke-linecap="round" stroke-linejoin="round"/>
<path d="M331.746 274.098C331.746 274.098 340.017 257.556 355.639 249.592" stroke="#263238" stroke-miterlimit="10" stroke-linecap="round" stroke-linejoin="round"/>
<path d="M321.249 287.925C321.249 287.925 326.466 273.333 323.323 256.788C320.18 240.243 322.26 230.501 326.695 236.883C332.076 244.626 339.372 266.008 324.679 289.879C318.34 300.179 321.249 287.925 321.249 287.925Z" fill="#007AFF" stroke="#263238" stroke-miterlimit="10" stroke-linecap="round" stroke-linejoin="round"/>
<path d="M323.638 285.417C323.638 285.417 330.774 270.301 327.709 254.751" stroke="#263238" stroke-miterlimit="10" stroke-linecap="round" stroke-linejoin="round"/>
<path d="M330.521 270.592C330.521 270.592 335.738 256 332.595 239.455C329.452 222.91 331.532 213.168 335.967 219.55C341.348 227.294 348.644 248.675 333.951 272.546C327.612 282.846 330.521 270.592 330.521 270.592Z" fill="#007AFF" stroke="#263238" stroke-miterlimit="10" stroke-linecap="round" stroke-linejoin="round"/>
<path d="M331.747 274.098C331.747 274.098 340.045 252.968 336.98 237.418" stroke="#263238" stroke-miterlimit="10" stroke-linecap="round" stroke-linejoin="round"/>
<path d="M335.361 226.144H240.302L187.12 141.576H282.179L335.361 226.144Z" fill="#263238" stroke="#263238" stroke-miterlimit="10" stroke-linecap="round" stroke-linejoin="round"/>
<path d="M227.074 223.238H129.644V309.301H227.074V223.238Z" fill="#C7C7C7" stroke="#263238" stroke-miterlimit="10" stroke-linecap="round" stroke-linejoin="round"/>
<path d="M324.503 309.301H227.073V223.238L276.6 144.482L324.503 223.238V309.301Z" fill="white" stroke="#263238" stroke-miterlimit="10" stroke-linecap="round" stroke-linejoin="round"/>
<path d="M248.183 238.664H238.44V267.893H248.183V238.664Z" fill="#C7C7C7" stroke="#263238" stroke-miterlimit="10" stroke-linecap="round" stroke-linejoin="round"/>
<path d="M257.927 238.664H248.184V267.893H257.927V238.664Z" fill="#263238" stroke="#263238" stroke-miterlimit="10" stroke-linecap="round" stroke-linejoin="round"/>
<path d="M267.67 238.664H257.927V267.893H267.67V238.664Z" fill="#C7C7C7" stroke="#263238" stroke-miterlimit="10" stroke-linecap="round" stroke-linejoin="round"/>
<path d="M203.529 238.664H195.41V267.893H203.529V238.664Z" fill="#919191" stroke="#263238" stroke-miterlimit="10" stroke-linecap="round" stroke-linejoin="round"/>
<path d="M211.648 238.664H203.529V267.893H211.648V238.664Z" fill="#263238" stroke="#263238" stroke-miterlimit="10" stroke-linecap="round" stroke-linejoin="round"/>
<path d="M219.767 238.664H211.648V267.893H219.767V238.664Z" fill="#919191" stroke="#263238" stroke-miterlimit="10" stroke-linecap="round" stroke-linejoin="round"/>
<path d="M143.447 238.664H135.328V267.893H143.447V238.664Z" fill="#919191" stroke="#263238" stroke-miterlimit="10" stroke-linecap="round" stroke-linejoin="round"/>
<path d="M151.566 238.664H143.447V267.893H151.566V238.664Z" fill="#263238" stroke="#263238" stroke-miterlimit="10" stroke-linecap="round" stroke-linejoin="round"/>
<path d="M159.685 238.664H151.566V267.893H159.685V238.664Z" fill="#919191" stroke="#263238" stroke-miterlimit="10" stroke-linecap="round" stroke-linejoin="round"/>
<path d="M297.711 238.664H287.968V267.893H297.711V238.664Z" fill="#C7C7C7" stroke="#263238" stroke-miterlimit="10" stroke-linecap="round" stroke-linejoin="round"/>
<path d="M307.454 238.664H297.711V267.893H307.454V238.664Z" fill="#263238" stroke="#263238" stroke-miterlimit="10" stroke-linecap="round" stroke-linejoin="round"/>
<path d="M317.197 238.664H307.454V267.893H317.197V238.664Z" fill="#C7C7C7" stroke="#263238" stroke-miterlimit="10" stroke-linecap="round" stroke-linejoin="round"/>
<path d="M274.976 190.761H268.481V208.623H274.976V190.761Z" fill="#C7C7C7" stroke="#263238" stroke-miterlimit="10" stroke-linecap="round" stroke-linejoin="round"/>
<path d="M281.472 190.761H274.977V208.623H281.472V190.761Z" fill="#263238" stroke="#263238" stroke-miterlimit="10" stroke-linecap="round" stroke-linejoin="round"/>
<path d="M287.968 190.761H281.473V208.623H287.968V190.761Z" fill="#C7C7C7" stroke="#263238" stroke-miterlimit="10" stroke-linecap="round" stroke-linejoin="round"/>
<path d="M124.222 226.144H228.842L282.024 141.576H177.404L124.222 226.144Z" fill="#007AFF" stroke="#263238" stroke-miterlimit="10" stroke-linecap="round" stroke-linejoin="round"/>
<path d="M205.905 179.775H164.591V207.115H205.905V179.775Z" fill="#C7C7C7" stroke="#263238" stroke-miterlimit="10" stroke-linecap="round" stroke-linejoin="round"/>
<path d="M205.905 179.775L234.454 160.168L205.905 207.115V179.775Z" fill="white" stroke="#263238" stroke-miterlimit="10" stroke-linecap="round" stroke-linejoin="round"/>
<path d="M161.28 180.704H204.552L234.454 160.168H191.189L161.28 180.704Z" fill="#007AFF" stroke="#263238" stroke-miterlimit="10" stroke-linecap="round" stroke-linejoin="round"/>
<path d="M181.202 185.58H174.707V203.442H181.202V185.58Z" fill="#919191" stroke="#263238" stroke-miterlimit="10" stroke-linecap="round" stroke-linejoin="round"/>
<path d="M187.697 185.58H181.202V203.442H187.697V185.58Z" fill="#263238" stroke="#263238" stroke-miterlimit="10" stroke-linecap="round" stroke-linejoin="round"/>
<path d="M194.193 185.58H187.698V203.442H194.193V185.58Z" fill="#919191" stroke="#263238" stroke-miterlimit="10" stroke-linecap="round" stroke-linejoin="round"/>
<path d="M256.836 128.75H253.203V155.285L256.836 149.418V128.75Z" fill="white" stroke="#263238" stroke-miterlimit="10" stroke-linecap="round" stroke-linejoin="round"/>
<path d="M253.371 128.75H242.633V155.285H253.371V128.75Z" fill="#C7C7C7" stroke="#263238" stroke-miterlimit="10" stroke-linecap="round" stroke-linejoin="round"/>
<path d="M190.862 243.578H165.855V309.301H190.862V243.578Z" fill="#263238" stroke="#263238" stroke-miterlimit="10" stroke-linecap="round" stroke-linejoin="round"/>
<path d="M189.542 276.355C189.542 275.133 188.551 274.142 187.329 274.142C186.107 274.142 185.116 275.133 185.116 276.355C185.116 277.577 186.107 278.568 187.329 278.568C188.551 278.569 189.542 277.578 189.542 276.355Z" fill="white" stroke="#263238" stroke-miterlimit="10" stroke-linecap="round" stroke-linejoin="round"/>
<path d="M124.487 295.553C124.487 295.553 103.544 284.092 83.9866 281.964C64.4296 279.836 53.1146 288.947 53.2116 292.904C53.3086 296.86 66.8816 297.156 69.4566 297.817C72.0316 298.478 87.7606 294.135 110.973 299.65C134.185 305.165 137.158 306.299 137.158 306.299L124.487 295.553Z" fill="white" stroke="#263238" stroke-miterlimit="10" stroke-linecap="round" stroke-linejoin="round"/>
<path d="M115.727 295.291C115.727 295.291 93.8747 285.676 74.2067 285.239C54.5397 284.802 44.0507 294.854 44.4877 298.787C44.9247 302.72 58.4737 301.846 61.0957 302.283C63.7177 302.72 79.0147 297.038 102.615 300.535C126.216 304.031 129.275 304.905 129.275 304.905L115.727 295.291Z" fill="white" stroke="#263238" stroke-miterlimit="10" stroke-linecap="round" stroke-linejoin="round"/>
<path d="M395.066 287.202L364.721 278.984C364.721 278.984 343.227 261.915 317.307 263.812C291.388 265.709 267.997 275.824 260.411 281.513C252.825 287.203 243.342 292.892 241.446 294.157C239.549 295.421 213.63 288.467 199.722 294.157C185.814 299.847 175.067 311.226 175.067 311.226C175.067 311.226 116.274 293.525 101.734 290.996C87.1941 288.467 70.1251 289.732 58.1131 298.582C46.1011 307.432 48.6301 313.122 54.9521 314.387C61.2741 315.651 62.5381 309.33 97.3081 318.812C132.078 328.295 174.434 352.95 191.503 362.433C208.572 371.916 237.02 385.192 255.986 379.502C274.951 373.812 326.791 354.215 338.802 354.215C350.813 354.215 389.377 356.744 389.377 356.744L395.066 287.202Z" fill="white" stroke="#263238" stroke-miterlimit="10" stroke-linecap="round" stroke-linejoin="round"/>
<path d="M378.562 329.023L352.482 354.06L389.375 356.742L378.562 329.023Z" fill="#263238" stroke="#263238" stroke-miterlimit="10" stroke-linecap="round" stroke-linejoin="round"/>
<path d="M175.065 311.225C175.065 311.225 169.193 318.942 171.668 328.944C173.197 335.121 180.409 333.752 193.52 331.129C206.631 328.507 194.394 326.759 224.987 326.322C255.58 325.885 288.359 325.011 290.107 325.011" stroke="#263238" stroke-miterlimit="10" stroke-linecap="round" stroke-linejoin="round"/>
<path d="M174.845 332.667C174.845 332.667 175.428 328.675 179.689 326.208C179.689 326.208 186.955 322.44 191.53 322.44C196.105 322.44 199.872 327.284 198.527 328.899" stroke="#263238" stroke-miterlimit="10" stroke-linecap="round" stroke-linejoin="round"/>
<path d="M214.135 325.132V319.749" stroke="#263238" stroke-miterlimit="10" stroke-linecap="round" stroke-linejoin="round"/>
<path d="M216.826 314.636C216.826 314.636 217.633 317.596 217.095 322.171" stroke="#263238" stroke-miterlimit="10" stroke-linecap="round" stroke-linejoin="round"/>
<path d="M421.66 385.9H380.887C378.408 385.9 376.398 383.89 376.398 381.411V279.116C376.398 276.637 378.408 274.627 380.887 274.627H421.66V385.9Z" fill="#007AFF" stroke="#263238" stroke-miterlimit="10" stroke-linecap="round" stroke-linejoin="round"/>
<path d="M494.187 394.593H421.999C420.113 394.593 418.584 393.064 418.584 391.179V272.329C418.584 270.443 420.113 268.915 421.999 268.915H494.187V394.593Z" fill="#007AFF" stroke="#263238" stroke-miterlimit="10" stroke-linecap="round" stroke-linejoin="round"/>
<path d="M382.674 284.823H416.324" stroke="#263238" stroke-miterlimit="10" stroke-linecap="round" stroke-linejoin="round"/>
<path d="M415.866 298.027H381.656" stroke="#263238" stroke-miterlimit="10" stroke-linecap="round" stroke-linejoin="round"/>
<path d="M380.456 322.034H403.863" stroke="#263238" stroke-miterlimit="10" stroke-linecap="round" stroke-linejoin="round"/>
<path d="M408.063 322.034H415.865" stroke="#263238" stroke-miterlimit="10" stroke-linecap="round" stroke-linejoin="round"/>
</svg>
