<svg width="32" height="32" viewBox="0 0 32 32" fill="none" xmlns="http://www.w3.org/2000/svg">
<path d="M6.49234 7.81171C6.50818 4.31962 6.51768 3.82307 6.55887 3.7971C6.58739 3.77763 10.4749 3.76465 16.9098 3.76465C27.1751 3.76465 27.2163 3.76465 27.2797 3.82956C27.3399 3.89122 27.343 3.92692 27.3272 4.59873C27.3177 4.98818 27.2955 5.53341 27.2797 5.80927C27.2638 6.08514 27.2416 6.48108 27.2321 6.68554C27.2226 6.89 27.2005 7.12368 27.1814 7.20481C27.1656 7.28595 27.1371 7.92205 27.1212 8.61658C27.1054 9.3111 27.0769 9.94071 27.0579 10.0121C27.042 10.0835 27.0167 10.1517 27.004 10.1646C26.9882 10.1809 26.9343 10.1906 26.8836 10.1906C26.8344 10.1938 26.5818 10.1785 26.3206 10.1628L26.2975 10.1614C26.0282 10.1419 24.8812 10.1127 23.747 10.0932C22.6159 10.077 20.3157 10.0608 18.6397 10.0608C16.6785 10.0608 15.5601 10.0738 15.5094 10.0932C15.465 10.1095 15.4111 10.1744 15.3858 10.2296C15.3573 10.2977 15.3351 10.5346 15.3193 10.8884C15.3098 11.1935 15.2844 11.6316 15.2686 11.862C15.2369 12.2807 15.2369 12.2839 15.3098 12.3423C15.3795 12.3975 15.6044 12.4008 19.9038 12.3975C23.4618 12.3975 24.444 12.4072 24.5074 12.4365C24.5803 12.4754 24.5898 12.4981 24.5866 12.6734C24.5866 12.7805 24.5707 12.92 24.5549 12.9817C24.5391 13.0434 24.5106 13.5788 24.4915 14.1663C24.4757 14.7537 24.4472 15.3833 24.4282 15.5618C24.4123 15.7403 24.3838 15.9675 24.3648 16.0649C24.3458 16.1622 24.3173 16.7172 24.3014 17.2981C24.2824 17.8791 24.2571 18.4308 24.2444 18.5281C24.2254 18.6774 24.2064 18.7131 24.1272 18.7651C24.0353 18.8202 23.8199 18.8235 14.8282 18.8235L14.7838 18.9273C14.7585 18.9955 14.7331 19.2356 14.7205 19.5862C14.7109 19.8912 14.6888 20.1898 14.6729 20.2515C14.6571 20.3131 14.6349 20.5468 14.6222 20.7707C14.6064 21.1018 14.6096 21.1894 14.6476 21.2413C14.6919 21.2997 14.7395 21.3062 15.1672 21.316C15.4238 21.3225 16.4187 21.3127 17.3787 21.29C18.3355 21.2705 20.021 21.2413 21.1173 21.2251C22.2135 21.2089 23.1577 21.1797 23.2084 21.1634C23.2591 21.1472 23.5537 21.1245 23.8579 21.1147C24.162 21.105 24.7767 21.0823 25.2203 21.0596C25.6638 21.0401 26.1264 21.0304 26.25 21.0401C26.3735 21.0498 26.4844 21.0693 26.4971 21.0855C26.5129 21.0985 26.5066 21.4263 26.4876 21.8093C26.4654 22.1922 26.4369 22.6823 26.421 22.8965C26.4052 23.1107 26.3799 23.8117 26.364 24.4543C26.345 25.0969 26.3165 25.7168 26.2975 25.8336C26.2785 25.9505 26.25 26.3074 26.2341 26.6287C26.2151 26.95 26.1898 27.2843 26.1549 27.5375L15.709 27.544C8.78937 27.5505 5.23768 27.544 5.19649 27.5212C5.16164 27.5018 5.14263 27.4726 5.15531 27.4466C5.16481 27.4271 5.18699 27.2162 5.19966 26.9857C5.21234 26.7553 5.24402 26.4697 5.26937 26.3529C5.29788 26.236 5.33273 26.0121 5.35174 25.8498C5.37075 25.6876 5.3961 25.4344 5.4056 25.2819C5.41511 25.1294 5.44996 24.8892 5.48164 24.7464C5.51333 24.6036 5.55451 24.2466 5.57352 23.9513C5.59253 23.6559 5.62739 23.3411 5.65273 23.2535C5.68125 23.1626 5.7161 22.8348 5.73194 22.5233C5.75095 22.2117 5.77946 21.8385 5.79847 21.6957C5.81748 21.5529 5.846 21.3614 5.86184 21.2738C5.87768 21.1829 5.91253 20.7253 5.94105 20.2515C5.96956 19.7776 6.00758 19.2973 6.02343 19.1805C6.03927 19.0636 6.06778 18.7131 6.08362 18.4016C6.10263 18.09 6.13748 17.4896 6.166 17.0709C6.19451 16.6523 6.22937 16.2791 6.24204 16.2434C6.25471 16.2077 6.27372 15.776 6.2864 15.2859C6.2959 14.7959 6.32758 13.9034 6.35293 13.3062C6.38145 12.7091 6.4163 12.1249 6.43847 12.0081C6.46065 11.8653 6.47966 10.5249 6.49234 7.81171Z" fill="white"/>
</svg>
