<svg width="52" height="53" viewBox="0 0 52 53" fill="none" xmlns="http://www.w3.org/2000/svg">
<path d="M25.9997 4.8335C23.1544 4.8335 20.3369 5.39392 17.7082 6.48277C15.0795 7.57162 12.691 9.16758 10.679 11.1795C6.61574 15.2428 4.33301 20.7538 4.33301 26.5002C4.33301 36.0768 10.5513 44.2018 19.153 47.0835C20.2363 47.2568 20.583 46.5852 20.583 46.0002V42.3385C14.5813 43.6385 13.303 39.4352 13.303 39.4352C12.3063 36.9218 10.898 36.2502 10.898 36.2502C8.92634 34.9068 11.0497 34.9502 11.0497 34.9502C13.2163 35.1018 14.3647 37.1818 14.3647 37.1818C16.2497 40.4752 19.4347 39.5002 20.6697 38.9802C20.8647 37.5718 21.428 36.6185 22.0347 36.0768C17.2247 35.5352 12.1763 33.6718 12.1763 25.4168C12.1763 23.0118 12.9997 21.0835 14.408 19.5452C14.1913 19.0035 13.433 16.7502 14.6247 13.8252C14.6247 13.8252 16.4447 13.2402 20.583 16.0352C22.2947 15.5585 24.158 15.3202 25.9997 15.3202C27.8413 15.3202 29.7047 15.5585 31.4163 16.0352C35.5547 13.2402 37.3747 13.8252 37.3747 13.8252C38.5663 16.7502 37.808 19.0035 37.5913 19.5452C38.9997 21.0835 39.823 23.0118 39.823 25.4168C39.823 33.6935 34.753 35.5135 29.9213 36.0552C30.7013 36.7268 31.4163 38.0485 31.4163 40.0635V46.0002C31.4163 46.5852 31.763 47.2785 32.868 47.0835C41.4697 44.1802 47.6663 36.0768 47.6663 26.5002C47.6663 23.6549 47.1059 20.8374 46.0171 18.2087C44.9282 15.58 43.3323 13.1915 41.3203 11.1795C39.3084 9.16758 36.9199 7.57162 34.2912 6.48277C31.6624 5.39392 28.845 4.8335 25.9997 4.8335Z" fill="black"/>
</svg>
