<svg width="52" height="53" viewBox="0 0 52 53" fill="none" xmlns="http://www.w3.org/2000/svg">
<path d="M45.5 9.86765V43.1324C45.5 43.8929 45.1979 44.6223 44.6601 45.1601C44.1223 45.6979 43.3929 46 42.6324 46H9.36765C8.6071 46 7.8777 45.6979 7.33991 45.1601C6.80213 44.6223 6.5 43.8929 6.5 43.1324V9.86765C6.5 9.1071 6.80213 8.3777 7.33991 7.83991C7.8777 7.30213 8.6071 7 9.36765 7H42.6324C43.3929 7 44.1223 7.30213 44.6601 7.83991C45.1979 8.3777 45.5 9.1071 45.5 9.86765V9.86765ZM17.9706 21.9118H12.2353V40.2647H17.9706V21.9118ZM18.4868 15.6029C18.4898 15.1691 18.4073 14.7389 18.2441 14.337C18.0809 13.935 17.8401 13.5691 17.5354 13.2603C17.2308 12.9514 16.8683 12.7055 16.4686 12.5367C16.069 12.3679 15.64 12.2795 15.2062 12.2765H15.1029C14.2207 12.2765 13.3746 12.6269 12.7508 13.2508C12.1269 13.8746 11.7765 14.7207 11.7765 15.6029C11.7765 16.4852 12.1269 17.3313 12.7508 17.9551C13.3746 18.5789 14.2207 18.9294 15.1029 18.9294V18.9294C15.5368 18.9401 15.9685 18.8652 16.3734 18.7089C16.7783 18.5527 17.1484 18.3182 17.4627 18.0189C17.7769 17.7196 18.0291 17.3613 18.2048 16.9644C18.3805 16.5676 18.4763 16.14 18.4868 15.7062V15.6029ZM39.7647 29.1153C39.7647 23.5979 36.2547 21.4529 32.7676 21.4529C31.6259 21.3958 30.4891 21.639 29.4707 22.1582C28.4523 22.6775 27.5878 23.4547 26.9635 24.4124H26.8029V21.9118H21.4118V40.2647H27.1471V30.5032C27.0642 29.5035 27.3791 28.5114 28.0234 27.7425C28.6677 26.9736 29.5894 26.49 30.5882 26.3968H30.8062C32.63 26.3968 33.9835 27.5438 33.9835 30.4344V40.2647H39.7188L39.7647 29.1153Z" fill="black"/>
</svg>
