<svg width="35" height="32" viewBox="0 0 35 32" fill="none" xmlns="http://www.w3.org/2000/svg">
<path d="M10.8792 2.20607C11.3266 2.09635 12.0061 1.9775 12.3846 1.93178C12.7631 1.88607 13.5889 1.86778 14.2169 1.89521C14.862 1.9135 15.7481 2.01407 16.2728 2.12378C16.7889 2.2335 17.5545 2.43464 17.976 2.58093C18.3975 2.72721 19.2147 3.09293 19.7825 3.39464C20.3502 3.69635 21.1846 4.22664 21.6319 4.58321C22.0792 4.94893 22.7502 5.55235 23.1201 5.93635C23.4986 6.32035 24.0405 6.9695 24.333 7.37178C24.6255 7.77407 24.961 8.26778 25.0814 8.46893C25.2104 8.67007 25.5115 9.26435 25.761 9.79464C26.0104 10.3249 26.3459 11.1844 26.5093 11.7146C26.6728 12.2449 26.8792 13.1501 26.9739 13.7261C27.0943 14.4392 27.1545 15.2164 27.1631 16.1489C27.1631 17.0358 27.1201 17.8221 27.0255 18.3889C26.9481 18.8644 26.7846 19.6324 26.6642 20.0804C26.5438 20.5284 26.3029 21.2506 26.1309 21.6804C25.9588 22.1101 25.6233 22.8049 25.3997 23.2346C25.1674 23.6644 24.8061 24.2586 24.5997 24.5604C24.3846 24.8621 23.9717 25.3924 23.6706 25.7398C23.3782 26.0964 22.8448 26.6449 22.4921 26.9649C22.1395 27.2849 21.5975 27.7238 21.2878 27.9432C20.9782 28.1626 20.4018 28.5284 19.9975 28.7478C19.5932 28.9764 18.8792 29.3146 18.4061 29.4975C17.933 29.6804 17.2534 29.9089 16.9007 30.0004C16.5481 30.1009 15.9287 30.2198 15.5244 30.2746C15.1201 30.3295 14.3115 30.3752 13.718 30.3752C13.1244 30.3752 12.2212 30.3112 11.6964 30.2289C11.1717 30.1466 10.2685 29.9089 9.67494 29.7078C9.08139 29.4975 8.19537 29.1135 7.69645 28.8484C7.19752 28.5832 6.46634 28.1169 6.06204 27.8152C5.65774 27.5135 5.04699 26.9832 4.6943 26.6449C4.34161 26.2975 3.79107 25.6941 3.47279 25.2918C3.16312 24.8895 2.72441 24.2769 2.50935 23.9204C2.3029 23.5638 1.95021 22.9055 1.73516 22.4575C1.52871 22.0095 1.23623 21.2872 1.09 20.8575C0.952363 20.4278 0.754513 19.6781 0.651287 19.1935C0.556664 18.6998 0.427631 17.7124 0.384621 16.9992C0.315804 16.0666 0.315804 15.4266 0.384621 14.7775C0.436234 14.2746 0.548062 13.5158 0.642685 13.0861C0.728707 12.6564 0.90075 11.9798 1.02118 11.5775C1.15021 11.1752 1.44269 10.4346 1.67494 9.93178C1.8986 9.42893 2.33731 8.62435 2.62978 8.14893C2.99967 7.55464 3.5158 6.9055 4.29 6.09178C5.04125 5.2994 5.70362 4.69902 6.27709 4.29064C6.75021 3.95235 7.5072 3.49521 7.95451 3.26664C8.40182 3.04721 9.06419 2.75464 9.41688 2.62664C9.76957 2.49864 10.4319 2.31578 10.8792 2.20607Z" fill="#F08933"/>
<path d="M11.0078 7.64604C11.2917 7.49976 11.7132 7.32604 11.9541 7.26204C12.2121 7.19804 12.7369 7.16147 13.2874 7.17976C13.9756 7.19804 14.3369 7.26204 14.7928 7.43576C15.1197 7.55461 15.61 7.81061 15.8681 7.99347C16.1261 8.17633 17.3562 9.40147 18.5949 10.7272C20.1949 12.4369 20.8659 13.214 20.9089 13.406C20.9347 13.5615 20.9433 13.8266 20.9089 14.0003C20.8831 14.174 20.7713 14.4209 20.6595 14.5306C20.5562 14.6495 20.367 14.8049 20.238 14.878C20.1003 14.9512 19.8681 15.006 19.7218 15.006C19.567 15.006 19.3433 14.942 19.2229 14.8598C19.1025 14.7775 17.9842 13.6255 16.7283 12.2998C14.724 10.1969 14.4057 9.88604 14.0616 9.78547C13.8466 9.73061 13.4853 9.67576 13.2444 9.66661C13.0121 9.65747 12.6681 9.6849 12.1691 9.79461L12.1261 8.01176L10.4917 7.92033L11.0078 7.64604Z" fill="white"/>
<path d="M8.80569 9.65747L8.40139 9.21861L7.99709 8.7889H11.3949V10.526C11.3949 11.4769 11.3691 12.2632 11.3261 12.2632C11.2917 12.2632 11.1025 12.0895 10.5433 11.486L10.4401 11.8975C10.3885 12.126 10.3627 12.5375 10.3885 12.8118C10.4057 13.086 10.5089 13.5249 10.6121 13.7718C10.7584 14.1375 11.2659 14.7226 13.0293 16.606C14.7154 18.398 15.2831 19.0655 15.3519 19.3032C15.3949 19.4769 15.4121 19.7238 15.3777 19.8518C15.3519 19.9798 15.2745 20.19 15.2143 20.3363C15.1369 20.4826 14.939 20.6563 14.681 20.7752C14.3455 20.9398 14.225 20.958 13.9756 20.8758C13.7519 20.8026 13.0466 20.0986 11.2573 18.1878C9.33903 16.1306 8.79709 15.4998 8.61645 15.0975C8.48741 14.8232 8.30677 14.2472 8.20354 13.8175C8.0487 13.1866 8.0229 12.8849 8.06591 12.2175C8.09171 11.7695 8.18634 11.166 8.28096 10.8918C8.36698 10.6175 8.52182 10.2243 8.80569 9.65747Z" fill="white"/>
<path d="M12.2896 12.0072C12.367 11.8426 12.5562 11.6232 12.7111 11.5226C12.8659 11.422 13.124 11.3398 13.2874 11.3398C13.4853 11.3398 13.7089 11.4312 13.9326 11.6049C14.1218 11.7512 15.2573 12.9123 16.4444 14.1923C18.4229 16.3135 18.6379 16.5695 18.9132 17.1912C19.0853 17.5752 19.2917 18.1878 19.3691 18.5626C19.4724 19.0563 19.4982 19.4769 19.4552 20.0712C19.4293 20.5283 19.3347 21.1226 19.2401 21.3969C19.1455 21.6803 18.9992 22.0552 18.7498 22.5946L19.1369 22.9969C19.4293 23.3078 19.4896 23.4175 19.3949 23.454C19.3261 23.4815 18.5691 23.4998 16.1691 23.454L16.1519 21.8083C16.1347 20.9032 16.1433 20.1078 16.1691 20.0255C16.2035 19.9249 16.3154 19.998 16.5992 20.2998C16.9519 20.6838 16.9863 20.702 17.0466 20.5283C17.0896 20.4278 17.1154 20.0163 17.1154 19.614C17.1154 19.0563 17.0638 18.7912 16.9261 18.4712C16.7971 18.1969 16.0659 17.3558 14.6638 15.8655C13.5283 14.6586 12.496 13.5066 12.367 13.3055C12.2207 13.0769 12.1347 12.8209 12.1433 12.6198C12.1433 12.446 12.2121 12.1718 12.2896 12.0072Z" fill="white"/>
<path d="M6.95623 17.6118C7.11107 17.438 7.33473 17.2826 7.44655 17.2552C7.55838 17.2369 7.70462 17.2095 7.76483 17.2095C7.82505 17.2003 7.97989 17.2369 8.10892 17.2918C8.23795 17.3466 9.39064 18.4895 10.6638 19.8426C12.4788 21.7535 13.0638 22.3203 13.3304 22.4118C13.5197 22.4758 13.9498 22.5398 14.2767 22.5398C14.6121 22.5398 14.9992 22.5215 15.3949 22.4483L15.438 24.3226L17.0293 24.3683L16.6423 24.5695C16.4272 24.6792 16.0057 24.8438 15.696 24.926C15.3777 25.0175 14.8272 25.0815 14.4057 25.0815C14.0014 25.0815 13.425 25.0083 13.1154 24.926C12.8057 24.8346 12.3068 24.6243 11.9971 24.4598C11.5326 24.1946 11.0337 23.71 9.05516 21.6072C7.35193 19.7878 6.66376 18.9923 6.62075 18.7912C6.58634 18.6449 6.58634 18.3889 6.61215 18.2243C6.63795 18.0598 6.79279 17.7855 6.95623 17.6118Z" fill="white"/>
</svg>
