<svg width="492" height="369" viewBox="0 0 492 369" fill="none" xmlns="http://www.w3.org/2000/svg">
<g clip-path="url(#clip0_1585_2288)">
<mask id="mask0_1585_2288" style="mask-type:luminance" maskUnits="userSpaceOnUse" x="0" y="0" width="492" height="369">
<path d="M492 0H0V369H492V0Z" fill="white"/>
</mask>
<g mask="url(#mask0_1585_2288)">
<g opacity="0.4">
<path d="M382.095 118.713L353.154 102.003L382.094 85.2949L382.35 85.4428L411.035 102.004L382.095 118.713ZM355.203 102.003L382.095 117.529L408.986 102.004L382.094 86.4782L355.203 102.003Z" fill="#4A90E2"/>
<path d="M326.263 118.712L297.323 102.003L326.263 85.2942L355.203 102.003L326.263 118.712ZM299.372 102.003L326.263 117.528L353.154 102.003L326.263 86.4774L299.372 102.003Z" fill="#4A90E2"/>
<path d="M354.179 134.829L353.923 134.681L325.238 118.12L354.178 101.411L383.119 118.121L354.179 134.829ZM327.287 118.12L354.179 133.646L381.07 118.121L354.178 102.595L327.287 118.12Z" fill="#4A90E2"/>
<path d="M382.095 150.946L381.839 150.798L353.154 134.237L382.094 117.529L382.35 117.678L411.035 134.238L382.095 150.946ZM355.203 134.237L382.095 149.763L408.986 134.238L382.094 118.713L355.203 134.237Z" fill="#4A90E2"/>
<path d="M270.432 118.711L270.176 118.563L241.491 102.002L270.431 85.2942L270.686 85.4421L299.372 102.003L270.432 118.711ZM243.54 102.002L270.432 117.528L297.323 102.003L270.431 86.4774L243.54 102.002Z" fill="#4A90E2"/>
<path d="M298.347 134.829L269.407 118.119L298.347 101.411L327.287 118.12L298.347 134.829ZM271.456 118.119L298.347 133.646L325.238 118.12L298.347 102.595L271.456 118.119Z" fill="#4A90E2"/>
<path d="M326.264 150.946L326.008 150.798L297.323 134.237L326.263 117.528L326.519 117.677L355.204 134.237L326.264 150.946ZM299.372 134.237L326.264 149.763L353.155 134.237L326.263 118.712L299.372 134.237Z" fill="#4A90E2"/>
<path d="M354.18 167.064L353.924 166.915L325.239 150.355L354.179 133.646L354.435 133.794L383.12 150.355L354.18 167.064ZM327.288 150.355L354.18 165.88L381.071 150.355L354.179 134.829L327.288 150.355Z" fill="#4A90E2"/>
<path d="M382.096 183.181L381.84 183.033L353.155 166.472L382.095 149.763L411.036 166.472L382.096 183.181ZM355.204 166.472L382.096 181.997L408.987 166.472L382.095 150.946L355.204 166.472Z" fill="#4A90E2"/>
<path d="M214.6 118.711L214.344 118.563L185.659 102.002L214.599 85.2932L214.855 85.4411L243.54 102.002L214.6 118.711ZM187.708 102.002L214.6 117.528L241.491 102.002L214.599 86.4765L187.708 102.002Z" fill="#4A90E2"/>
<path d="M242.517 134.828L242.261 134.68L213.576 118.119L242.516 101.41L242.772 101.558L271.457 118.119L242.517 134.828ZM215.625 118.119L242.517 133.645L269.408 118.119L242.516 102.594L215.625 118.119Z" fill="#4A90E2"/>
<path d="M270.433 150.945L270.177 150.797L241.492 134.237L270.432 117.528L299.372 134.237L270.433 150.945ZM243.541 134.237L270.433 149.762L297.323 134.237L270.432 118.711L243.541 134.237Z" fill="#4A90E2"/>
<path d="M298.348 167.064L269.408 150.354L298.347 133.646L298.603 133.794L327.288 150.355L298.348 167.064ZM271.457 150.354L298.348 165.88L325.239 150.355L298.347 134.829L271.457 150.354Z" fill="#4A90E2"/>
<path d="M326.265 183.181L326.009 183.033L297.324 166.472L326.264 149.763L326.52 149.911L355.205 166.472L326.265 183.181ZM299.373 166.472L326.265 181.997L353.156 166.472L326.264 150.946L299.373 166.472Z" fill="#4A90E2"/>
<path d="M354.181 199.298L353.925 199.15L325.24 182.589L354.18 165.88L354.436 166.028L383.121 182.589L354.181 199.298ZM327.289 182.589L354.181 198.114L381.072 182.589L354.18 167.063L327.289 182.589Z" fill="#4A90E2"/>
<path d="M382.097 215.415L381.841 215.267L353.156 198.706L382.096 181.997L382.352 182.146L411.037 198.706L382.097 215.415ZM355.205 198.706L382.097 214.232L408.988 198.706L382.096 183.181L355.205 198.706Z" fill="#4A90E2"/>
<path d="M158.769 118.71L158.513 118.562L129.828 102.001L158.768 85.2932L159.024 85.4411L187.709 102.002L158.769 118.71ZM131.877 102.001L158.769 117.527L185.66 102.002L158.768 86.4765L131.877 102.001Z" fill="#4A90E2"/>
<path d="M186.685 134.828L157.744 118.118L186.684 101.41L186.939 101.558L215.625 118.119L186.685 134.828ZM159.793 118.118L186.685 133.645L213.576 118.119L186.684 102.594L159.793 118.118Z" fill="#4A90E2"/>
<path d="M214.601 150.945L214.345 150.797L185.66 134.237L214.6 117.528L214.856 117.676L243.541 134.237L214.601 150.945ZM187.709 134.237L214.601 149.762L241.492 134.237L214.6 118.711L187.709 134.237Z" fill="#4A90E2"/>
<path d="M242.518 167.063L242.262 166.914L213.577 150.354L242.517 133.645L242.773 133.793L271.458 150.354L242.518 167.063ZM215.626 150.354L242.518 165.879L269.409 150.354L242.517 134.828L215.626 150.354Z" fill="#4A90E2"/>
<path d="M270.433 183.18L241.493 166.471L270.433 149.762L299.373 166.472L270.433 183.18ZM243.542 166.471L270.433 181.996L297.324 166.472L270.433 150.945L243.542 166.471Z" fill="#4A90E2"/>
<path d="M298.349 199.297L298.093 199.149L269.408 182.588L298.348 165.88L298.604 166.028L327.289 182.589L298.349 199.297ZM271.457 182.588L298.349 198.114L325.24 182.589L298.348 167.063L271.457 182.588Z" fill="#4A90E2"/>
<path d="M326.266 215.415L297.325 198.705L326.265 181.997L326.521 182.146L355.206 198.706L326.266 215.415ZM299.374 198.705L326.266 214.232L353.157 198.706L326.265 183.181L299.374 198.705Z" fill="#4A90E2"/>
<path d="M354.182 231.532L353.926 231.384L325.241 214.823L354.181 198.115L354.436 198.263L383.122 214.823L354.182 231.532ZM327.29 214.823L354.182 230.349L381.073 214.823L354.181 199.298L327.29 214.823Z" fill="#4A90E2"/>
<path d="M382.098 247.65L381.842 247.502L353.157 230.941L382.097 214.232L382.353 214.38L411.038 230.941L382.098 247.65ZM355.206 230.941L382.098 246.466L408.989 230.941L382.097 215.415L355.206 230.941Z" fill="#4A90E2"/>
<path d="M102.937 118.71L102.681 118.562L73.9961 102.001L102.936 85.2922L103.192 85.4405L131.877 102.001L102.937 118.71ZM76.045 102.001L102.937 117.527L129.828 102.001L102.936 86.4755L76.045 102.001Z" fill="#4A90E2"/>
<path d="M130.853 134.827L130.597 134.679L101.912 118.118L130.852 101.409L131.108 101.557L159.793 118.118L130.853 134.827ZM103.961 118.118L130.853 133.644L157.744 118.118L130.852 102.593L103.961 118.118Z" fill="#4A90E2"/>
<path d="M158.77 150.944L158.514 150.796L129.829 134.236L158.769 117.527L187.71 134.236L158.77 150.944ZM131.878 134.236L158.77 149.761L185.661 134.236L158.769 118.71L131.878 134.236Z" fill="#4A90E2"/>
<path d="M186.686 167.063L157.745 150.353L186.685 133.645L186.941 133.793L215.626 150.354L186.686 167.063ZM159.794 150.353L186.686 165.879L213.577 150.354L186.685 134.828L159.794 150.353Z" fill="#4A90E2"/>
<path d="M214.602 183.18L214.346 183.032L185.661 166.471L214.601 149.762L214.857 149.91L243.542 166.471L214.602 183.18ZM187.71 166.471L214.602 181.996L241.493 166.471L214.601 150.945L187.71 166.471Z" fill="#4A90E2"/>
<path d="M242.518 199.297L213.578 182.588L242.518 165.879L271.458 182.588L242.518 199.297ZM215.627 182.588L242.518 198.114L269.409 182.588L242.518 167.063L215.627 182.588Z" fill="#4A90E2"/>
<path d="M270.434 215.414L270.178 215.266L241.493 198.705L270.433 181.996L270.688 182.145L299.374 198.705L270.434 215.414ZM243.542 198.705L270.434 214.231L297.325 198.705L270.433 183.18L243.542 198.705Z" fill="#4A90E2"/>
<path d="M298.35 231.532L298.094 231.383L269.409 214.823L298.349 198.114L327.29 214.824L298.35 231.532ZM271.458 214.823L298.35 230.348L325.241 214.824L298.349 199.297L271.458 214.823Z" fill="#4A90E2"/>
<path d="M326.266 247.65L297.325 230.94L326.265 214.232L326.521 214.38L355.206 230.941L326.266 247.65ZM299.374 230.94L326.266 246.466L353.157 230.941L326.265 215.415L299.374 230.94Z" fill="#4A90E2"/>
<path d="M354.183 263.767L353.927 263.619L325.242 247.058L354.182 230.349L354.437 230.497L383.123 247.058L354.183 263.767ZM327.291 247.058L354.183 262.583L381.074 247.058L354.182 231.532L327.291 247.058Z" fill="#4A90E2"/>
<path d="M382.099 279.884L381.843 279.736L353.158 263.175L382.098 246.466L382.354 246.615L411.039 263.175L382.099 279.884ZM355.207 263.175L382.099 278.701L408.99 263.175L382.098 247.65L355.207 263.175Z" fill="#4A90E2"/>
<path d="M102.938 150.944L102.682 150.796L73.9971 134.236L102.937 117.527L103.193 117.675L131.878 134.236L102.938 150.944ZM76.0459 134.236L102.938 149.761L129.829 134.236L102.937 118.71L76.0459 134.236Z" fill="#4A90E2"/>
<path d="M130.854 167.062L130.598 166.913L101.913 150.353L130.853 133.644L131.109 133.792L159.794 150.353L130.854 167.062ZM103.962 150.353L130.854 165.878L157.745 150.353L130.853 134.827L103.962 150.353Z" fill="#4A90E2"/>
<path d="M158.771 183.179L158.515 183.031L129.83 166.47L158.77 149.761L187.71 166.471L158.771 183.179ZM131.879 166.47L158.771 181.996L185.662 166.471L158.77 150.944L131.879 166.47Z" fill="#4A90E2"/>
<path d="M186.687 199.296L186.431 199.148L157.746 182.587L186.686 165.879L186.942 166.027L215.627 182.588L186.687 199.296ZM159.795 182.587L186.687 198.113L213.578 182.588L186.686 167.063L159.795 182.587Z" fill="#4A90E2"/>
<path d="M214.603 215.414L185.662 198.704L214.602 181.996L243.542 198.705L214.603 215.414ZM187.711 198.704L214.603 214.231L241.493 198.705L214.602 183.18L187.711 198.704Z" fill="#4A90E2"/>
<path d="M242.519 231.532L213.579 214.823L242.518 198.114L242.774 198.262L271.459 214.823L242.519 231.532ZM215.628 214.823L242.519 230.348L269.41 214.823L242.518 199.297L215.628 214.823Z" fill="#4A90E2"/>
<path d="M270.435 247.649L270.179 247.501L241.494 230.94L270.434 214.231L270.69 214.379L299.375 230.94L270.435 247.649ZM243.543 230.94L270.435 246.465L297.326 230.94L270.434 215.414L243.543 230.94Z" fill="#4A90E2"/>
<path d="M298.351 263.766L298.095 263.618L269.41 247.057L298.35 230.348L327.291 247.058L298.351 263.766ZM271.459 247.057L298.351 262.583L325.242 247.058L298.35 231.531L271.459 247.057Z" fill="#4A90E2"/>
<path d="M326.267 279.883L326.011 279.735L297.326 263.174L326.266 246.466L326.522 246.615L355.207 263.175L326.267 279.883ZM299.375 263.174L326.267 278.7L353.158 263.175L326.266 247.65L299.375 263.174Z" fill="#4A90E2"/>
<path d="M354.183 296.001L325.242 279.292L354.182 262.583L354.438 262.732L383.123 279.292L354.183 296.001ZM327.291 279.292L354.183 294.818L381.074 279.292L354.182 263.767L327.291 279.292Z" fill="#4A90E2"/>
<path d="M382.1 312.119L381.844 311.971L353.159 295.41L382.099 278.701L382.355 278.849L411.04 295.41L382.1 312.119ZM355.208 295.41L382.1 310.935L408.991 295.41L382.099 279.884L355.208 295.41Z" fill="#4A90E2"/>
<path d="M102.939 183.179L73.998 166.469L102.938 149.761L103.194 149.909L131.879 166.47L102.939 183.179ZM76.0469 166.469L102.939 181.996L129.83 166.47L102.938 150.944L76.0469 166.469Z" fill="#4A90E2"/>
<path d="M130.855 199.296L130.599 199.148L101.914 182.587L130.854 165.878L131.11 166.026L159.794 182.587L130.855 199.296ZM103.963 182.587L130.855 198.113L157.746 182.587L130.854 167.062L103.963 182.587Z" fill="#4A90E2"/>
<path d="M158.772 215.413L158.516 215.265L129.831 198.704L158.771 181.995L159.026 182.144L187.711 198.704L158.772 215.413ZM131.88 198.704L158.772 214.23L185.663 198.704L158.771 183.179L131.88 198.704Z" fill="#4A90E2"/>
<path d="M186.688 231.531L186.432 231.382L157.747 214.822L186.687 198.113L215.628 214.823L186.688 231.531ZM159.796 214.822L186.688 230.347L213.579 214.823L186.687 199.296L159.796 214.822Z" fill="#4A90E2"/>
<path d="M214.603 247.648L185.663 230.939L214.603 214.231L243.543 230.94L214.603 247.648ZM187.712 230.939L214.603 246.464L241.494 230.94L214.603 215.414L187.712 230.939Z" fill="#4A90E2"/>
<path d="M242.52 263.766L213.579 247.056L242.519 230.348L242.774 230.496L271.46 247.057L242.52 263.766ZM215.628 247.056L242.52 262.583L269.411 247.057L242.519 231.531L215.628 247.056Z" fill="#4A90E2"/>
<path d="M270.436 279.883L270.18 279.735L241.495 263.174L270.435 246.465L270.691 246.614L299.376 263.174L270.436 279.883ZM243.544 263.174L270.436 278.7L297.327 263.174L270.435 247.649L243.544 263.174Z" fill="#4A90E2"/>
<path d="M298.352 296L298.096 295.852L269.411 279.291L298.351 262.583L298.607 262.731L327.292 279.291L298.352 296ZM271.46 279.291L298.352 294.817L325.243 279.291L298.351 263.766L271.46 279.291Z" fill="#4A90E2"/>
<path d="M326.268 312.118L326.012 311.97L297.327 295.409L326.267 278.7L355.208 295.41L326.268 312.118ZM299.376 295.409L326.268 310.934L353.159 295.41L326.267 279.883L299.376 295.409Z" fill="#4A90E2"/>
<path d="M102.94 215.413L73.999 198.703L102.939 181.995L103.195 182.144L131.88 198.704L102.94 215.413ZM76.0479 198.703L102.94 214.23L129.831 198.704L102.939 183.179L76.0479 198.703Z" fill="#4A90E2"/>
<path d="M130.856 231.531L130.6 231.382L101.915 214.822L130.855 198.113L131.11 198.261L159.795 214.822L130.856 231.531ZM103.964 214.822L130.856 230.347L157.747 214.822L130.855 199.296L103.964 214.822Z" fill="#4A90E2"/>
<path d="M158.772 247.648L158.516 247.5L129.831 230.939L158.771 214.23L159.027 214.378L187.712 230.939L158.772 247.648ZM131.88 230.939L158.772 246.464L185.663 230.939L158.771 215.413L131.88 230.939Z" fill="#4A90E2"/>
<path d="M186.688 263.765L157.748 247.056L186.688 230.347L215.628 247.056L186.688 263.765ZM159.797 247.056L186.688 262.582L213.579 247.056L186.688 231.531L159.797 247.056Z" fill="#4A90E2"/>
<path d="M214.604 279.882L214.348 279.734L185.663 263.173L214.603 246.464L243.544 263.174L214.604 279.882ZM187.712 263.173L214.604 278.699L241.495 263.174L214.603 247.648L187.712 263.173Z" fill="#4A90E2"/>
<path d="M242.52 296L213.579 279.291L242.519 262.583L242.774 262.731L271.46 279.291L242.52 296ZM215.628 279.291L242.52 294.817L269.411 279.291L242.519 263.766L215.628 279.291Z" fill="#4A90E2"/>
<path d="M270.437 312.118L270.181 311.97L241.496 295.409L270.436 278.7L270.692 278.848L299.377 295.409L270.437 312.118ZM243.545 295.409L270.437 310.934L297.328 295.409L270.436 279.883L243.545 295.409Z" fill="#4A90E2"/>
<path d="M102.941 247.647L102.685 247.499L74 230.938L102.94 214.23L103.196 214.378L131.881 230.939L102.941 247.647ZM76.0489 230.938L102.941 246.463L129.832 230.939L102.94 215.413L76.0489 230.938Z" fill="#4A90E2"/>
<path d="M130.857 263.765L101.916 247.055L130.856 230.347L131.111 230.495L159.796 247.056L130.857 263.765ZM103.965 247.055L130.857 262.582L157.748 247.056L130.856 231.531L103.965 247.055Z" fill="#4A90E2"/>
<path d="M158.773 279.882L158.517 279.734L129.832 263.173L158.772 246.464L187.712 263.173L158.773 279.882ZM131.881 263.173L158.773 278.699L185.663 263.173L158.772 247.648L131.881 263.173Z" fill="#4A90E2"/>
<path d="M186.689 296L157.749 279.291L186.688 262.582L186.944 262.73L215.629 279.291L186.689 296ZM159.798 279.291L186.689 294.816L213.58 279.291L186.688 263.765L159.798 279.291Z" fill="#4A90E2"/>
<path d="M214.605 312.117L214.349 311.969L185.664 295.408L214.604 278.699L243.544 295.409L214.605 312.117ZM187.713 295.408L214.605 310.933L241.496 295.409L214.604 279.882L187.713 295.408Z" fill="#4A90E2"/>
<path d="M102.942 279.881L102.686 279.733L74.001 263.172L102.941 246.463L131.882 263.173L102.942 279.881ZM76.0499 263.172L102.942 278.698L129.833 263.173L102.941 247.647L76.0499 263.172Z" fill="#4A90E2"/>
<path d="M130.858 295.999L130.602 295.851L101.917 279.29L130.857 262.582L131.112 262.73L159.797 279.291L130.858 295.999ZM103.966 279.29L130.858 294.815L157.749 279.291L130.857 263.765L103.966 279.29Z" fill="#4A90E2"/>
<path d="M158.773 312.117L129.833 295.407L158.773 278.699L187.713 295.408L158.773 312.117ZM131.882 295.407L158.773 310.933L185.664 295.408L158.773 279.882L131.882 295.407Z" fill="#4A90E2"/>
<path d="M102.943 312.116L102.687 311.968L74.002 295.407L102.942 278.698L103.198 278.846L131.882 295.407L102.943 312.116ZM76.0508 295.407L102.943 310.932L129.833 295.407L102.942 279.881L76.0508 295.407Z" fill="#4A90E2"/>
</g>
<path d="M237.586 276.521L183.992 245.578C182.028 244.444 182.274 242.463 184.542 241.154L241.347 208.273C243.614 206.964 247.045 206.821 249.009 207.955L302.604 238.898C304.568 240.032 304.321 242.013 302.053 243.322L245.249 276.203C242.981 277.513 239.55 277.655 237.586 276.521Z" fill="#7DC3EA"/>
<path d="M240.922 266.354C239.391 266.354 237.919 266.033 236.792 265.383L183.197 234.44C181.85 233.662 181.077 232.46 181.077 231.143C181.077 229.658 182.05 228.244 183.747 227.264L240.55 194.385C243.299 192.796 247.363 192.656 249.803 194.066L303.398 225.008C304.745 225.786 305.518 226.988 305.518 228.306C305.518 229.791 304.545 231.204 302.847 232.184L246.045 265.064C244.565 265.919 242.705 266.354 240.922 266.354ZM238.38 262.631C239.852 263.481 242.691 263.332 244.455 262.313L301.257 229.433C302.052 228.974 302.341 228.507 302.341 228.306C302.341 228.186 302.176 227.972 301.809 227.76L248.215 196.817C246.743 195.967 243.904 196.116 242.14 197.135L185.337 230.015C184.542 230.473 184.254 230.941 184.254 231.143C184.254 231.262 184.418 231.476 184.786 231.689L238.38 262.631Z" fill="#4A90E2"/>
<path d="M241.454 113.648C241.454 113.648 212.03 116.451 194.309 117.812L241.313 251.681L303.487 215.821C303.497 215.815 303.507 215.809 303.517 215.803L303.628 215.739L303.626 215.734C304.404 215.244 304.896 214.175 304.896 212.665V81.8195C304.896 80.4379 304.482 78.9505 303.816 77.6433L241.454 113.648Z" fill="#396CAA"/>
<path d="M301.046 74.4629L246.368 42.8947C245.417 42.3458 244.549 42.3061 243.877 42.6794L243.877 42.6791L181.453 78.692L184.394 89.5765L200.046 134.153L202.992 135.854L303.819 77.6418C303.118 76.2667 302.136 75.0924 301.046 74.4629Z" fill="#CCE7FC"/>
<path d="M238.668 251.56L183.99 219.991C181.863 218.764 180.14 215.47 180.14 212.635V81.7889C180.14 78.9537 181.863 77.6505 183.99 78.8784L238.668 110.447C240.794 111.674 242.518 114.968 242.518 117.803V248.649C242.518 251.484 240.794 252.787 238.668 251.56Z" fill="#5793CE"/>
<path d="M239.839 109.789L185.161 78.2206C183.93 77.5103 182.838 77.6517 182.133 78.4432C182.684 78.3559 183.316 78.4897 183.989 78.8783L238.668 110.447C240.794 111.674 242.518 114.968 242.518 117.803V248.649C242.518 249.843 242.209 250.761 241.696 251.337C242.884 251.149 243.69 249.929 243.69 247.991V117.145C243.69 114.31 241.966 111.017 239.839 109.789Z" fill="white"/>
<path d="M235.228 243.683L187.429 216.086C185.57 215.013 184.063 212.133 184.063 209.655V88.1362C184.063 85.6577 185.57 84.5184 187.429 85.5916L235.228 113.188C237.087 114.261 238.594 117.141 238.594 119.619V241.138C238.594 243.616 237.087 244.756 235.228 243.683Z" fill="url(#paint0_linear_1585_2288)"/>
<path d="M235.228 243.683L187.429 216.086C185.57 215.013 184.063 212.133 184.063 209.655V88.1362C184.063 85.6577 185.57 84.5184 187.429 85.5916L235.228 113.188C237.087 114.261 238.594 117.141 238.594 119.619V241.138C238.594 243.616 237.087 244.756 235.228 243.683Z" fill="url(#paint1_linear_1585_2288)"/>
<path d="M235.228 243.683L187.429 216.086C185.57 215.013 184.063 212.133 184.063 209.655V88.1362C184.063 85.6577 185.57 84.5184 187.429 85.5916L235.228 113.188C237.087 114.261 238.594 117.141 238.594 119.619V241.138C238.594 243.616 237.087 244.756 235.228 243.683Z" fill="#173D7A"/>
<path d="M236.79 242.764L188.991 215.167C187.132 214.094 185.625 211.215 185.625 208.736V87.2174C185.625 86.3724 185.804 85.6876 186.108 85.1885C184.906 85.1793 184.063 86.2829 184.063 88.1362V209.655C184.063 212.133 185.57 215.013 187.429 216.086L235.228 243.683C236.453 244.39 237.522 244.131 238.111 243.167C237.705 243.164 237.259 243.035 236.79 242.764Z" fill="#396CAA"/>
<path d="M235.229 187.891L217.462 177.634L189.127 193.994L238.594 222.554V194.322C238.594 191.844 237.087 188.964 235.229 187.891Z" fill="#173D7A"/>
<path d="M235.229 162.99L217.462 152.733L189.127 169.093L238.594 197.653V169.421C238.594 166.943 237.087 164.063 235.229 162.99Z" fill="#173D7A"/>
<path d="M235.229 138.089L217.462 127.832L189.127 144.192L238.594 172.752V144.52C238.594 142.042 237.087 139.162 235.229 138.089Z" fill="#173D7A"/>
<path d="M235.229 113.188L217.462 102.931L189.127 119.291L238.594 147.851V119.619C238.594 117.14 237.087 114.261 235.229 113.188Z" fill="#173D7A"/>
<path d="M235.229 113.188L195.897 90.4802L189.127 94.3889L238.594 122.949V119.619C238.594 117.14 237.087 114.261 235.229 113.188Z" fill="#173D7A"/>
<path d="M238.594 122.949L189.127 94.3889V110.128L238.594 138.688V122.949Z" fill="#5793CE"/>
<path d="M238.594 147.85L189.127 119.29V135.029L238.594 163.589V147.85Z" fill="#5793CE"/>
<path d="M238.594 172.751L189.127 144.191V159.93L238.594 188.49V172.751Z" fill="#5793CE"/>
<path d="M238.594 197.652L189.127 169.092V184.831L238.594 213.391V197.652Z" fill="#5793CE"/>
<path d="M238.594 222.553L189.127 193.993V209.732L238.594 238.292V222.553Z" fill="#5793CE"/>
<path d="M234.232 133.079L196.972 111.568C195.92 110.96 195.067 109.331 195.067 107.928V103.714C195.067 102.311 195.92 101.666 196.972 102.273L234.232 123.785C235.283 124.393 236.136 126.022 236.136 127.425V131.639C236.136 133.042 235.283 133.687 234.232 133.079Z" fill="#173D7A"/>
<g opacity="0.3">
<path d="M198.855 110.76C197.803 110.153 196.951 108.524 196.951 107.121V102.906C196.951 102.682 196.979 102.485 197.02 102.301L196.972 102.273C195.92 101.666 195.067 102.31 195.067 103.713V107.928C195.067 109.331 195.92 110.96 196.972 111.568L234.232 133.079C235.115 133.589 235.851 133.208 236.066 132.244L198.855 110.76Z" fill="#06033E"/>
</g>
<path d="M222.539 121.527L200.118 108.582C199.748 108.368 199.448 107.795 199.448 107.302C199.448 106.808 199.748 106.581 200.118 106.795L222.539 119.74C222.909 119.954 223.209 120.527 223.209 121.02C223.209 121.514 222.909 121.74 222.539 121.527Z" fill="white"/>
<path d="M234.232 157.826L196.972 136.315C195.92 135.707 195.067 134.078 195.067 132.675V128.461C195.067 127.058 195.92 126.413 196.972 127.021L234.232 148.532C235.283 149.139 236.136 150.769 236.136 152.172V156.386C236.136 157.789 235.283 158.434 234.232 157.826Z" fill="#173D7A"/>
<g opacity="0.3">
<path d="M198.855 135.508C197.803 134.9 196.951 133.271 196.951 131.868V127.654C196.951 127.429 196.979 127.232 197.02 127.048L196.972 127.02C195.92 126.413 195.067 127.058 195.067 128.46V132.675C195.067 134.078 195.92 135.707 196.972 136.315L234.232 157.826C235.115 158.337 235.851 157.955 236.066 156.992L198.855 135.508Z" fill="#06033E"/>
</g>
<path d="M222.539 146.274L200.118 133.329C199.748 133.115 199.448 132.543 199.448 132.049C199.448 131.556 199.748 131.329 200.118 131.542L222.539 144.487C222.909 144.701 223.209 145.274 223.209 145.768C223.209 146.261 222.909 146.488 222.539 146.274Z" fill="white"/>
<path d="M234.232 182.805L196.972 161.293C195.92 160.685 195.067 159.056 195.067 157.653V153.439C195.067 152.036 195.92 151.391 196.972 151.999L234.232 173.51C235.283 174.117 236.136 175.747 236.136 177.15V181.364C236.136 182.767 235.283 183.412 234.232 182.805Z" fill="#173D7A"/>
<g opacity="0.3">
<path d="M198.855 160.486C197.803 159.878 196.951 158.249 196.951 156.846V152.632C196.951 152.407 196.979 152.21 197.02 152.026L196.972 151.998C195.92 151.391 195.067 152.036 195.067 153.439V157.653C195.067 159.056 195.92 160.685 196.972 161.293L234.232 182.804C235.115 183.314 235.851 182.933 236.066 181.97L198.855 160.486Z" fill="#06033E"/>
</g>
<path d="M222.539 171.252L200.118 158.307C199.748 158.093 199.448 157.52 199.448 157.027C199.448 156.533 199.748 156.306 200.118 156.52L222.539 169.465C222.909 169.679 223.209 170.252 223.209 170.745C223.209 171.239 222.909 171.466 222.539 171.252Z" fill="#D4ECFF"/>
<path d="M234.232 208.013L196.972 186.502C195.92 185.894 195.067 184.265 195.067 182.862V178.647C195.067 177.245 195.92 176.6 196.972 177.207L234.232 198.719C235.283 199.326 236.136 200.956 236.136 202.358V206.573C236.136 207.976 235.283 208.62 234.232 208.013Z" fill="#173D7A"/>
<g opacity="0.3">
<path d="M198.855 185.694C197.803 185.087 196.951 183.458 196.951 182.055V177.84C196.951 177.616 196.979 177.418 197.02 177.235L196.972 177.207C195.92 176.599 195.067 177.244 195.067 178.647V182.862C195.067 184.264 195.92 185.894 196.972 186.501L234.232 208.013C235.115 208.523 235.851 208.142 236.066 207.178L198.855 185.694Z" fill="#06033E"/>
</g>
<path d="M222.539 196.46L200.118 183.516C199.748 183.302 199.448 182.728 199.448 182.235C199.448 181.742 199.748 181.515 200.118 181.729L222.539 194.673C222.909 194.887 223.209 195.46 223.209 195.954C223.209 196.447 222.909 196.674 222.539 196.46Z" fill="white"/>
<path d="M200.073 183.526L200.118 183.516C199.972 182.982 199.448 182.729 199.448 182.235C199.448 181.742 199.933 181.963 200.022 181.69L199.977 181.701C200.346 181.915 199.455 181.7 199.455 182.193C199.455 182.687 200.443 183.74 200.073 183.526Z" fill="#E20F22"/>
<path d="M234.232 232.722L196.972 211.21C195.92 210.603 195.067 208.974 195.067 207.571V203.356C195.067 201.953 195.92 201.309 196.972 201.916L234.232 223.428C235.283 224.035 236.136 225.664 236.136 227.067V231.282C236.136 232.685 235.283 233.329 234.232 232.722Z" fill="#173D7A"/>
<g opacity="0.3">
<path d="M198.855 210.403C197.803 209.795 196.951 208.166 196.951 206.763V202.549C196.951 202.324 196.979 202.127 197.02 201.943L196.972 201.916C195.92 201.308 195.067 201.953 195.067 203.356V207.57C195.067 208.973 195.92 210.602 196.972 211.21L234.232 232.721C235.115 233.232 235.851 232.851 236.066 231.887L198.855 210.403Z" fill="#06033E"/>
</g>
<path d="M222.539 221.169L200.118 208.224C199.748 208.011 199.448 207.437 199.448 206.944C199.448 206.45 199.748 206.224 200.118 206.437L222.539 219.382C222.909 219.596 223.209 220.169 223.209 220.663C223.209 221.156 222.909 221.383 222.539 221.169Z" fill="#D4ECFF"/>
<g opacity="0.5">
<path d="M189.127 94.3889L193.022 96.638V112.377L189.127 110.128V94.3889Z" fill="#173D7A"/>
</g>
<g opacity="0.5">
<path d="M189.127 119.29L193.022 121.539V137.278L189.127 135.029V119.29Z" fill="#173D7A"/>
</g>
<g opacity="0.5">
<path d="M189.127 144.191L193.022 146.44V162.179L189.127 159.93V144.191Z" fill="#173D7A"/>
</g>
<g opacity="0.5">
<path d="M189.127 169.092L193.022 171.341V187.08L189.127 184.831V169.092Z" fill="#173D7A"/>
</g>
<g opacity="0.5">
<path d="M189.127 193.993L193.022 196.242V211.981L189.127 209.732V193.993Z" fill="#173D7A"/>
</g>
<path d="M226.956 123.081C226.956 123.584 226.603 123.788 226.168 123.536C225.732 123.285 225.379 122.673 225.379 122.17C225.379 121.667 225.732 121.463 226.168 121.715C226.603 121.966 226.956 122.578 226.956 123.081Z" fill="#D4ECFF"/>
<path d="M230.3 125.011C230.3 125.514 229.947 125.718 229.511 125.467C229.076 125.215 228.723 124.604 228.723 124.101C228.723 123.598 229.076 123.394 229.511 123.645C229.947 123.897 230.3 124.508 230.3 125.011Z" fill="#FF2C9C"/>
<path d="M233.644 126.942C233.644 127.444 233.291 127.649 232.855 127.397C232.42 127.146 232.066 126.534 232.066 126.031C232.066 125.528 232.42 125.324 232.855 125.576C233.291 125.827 233.644 126.439 233.644 126.942Z" fill="#D4ECFF"/>
<path d="M226.956 147.969C226.956 148.472 226.603 148.676 226.168 148.425C225.732 148.173 225.379 147.562 225.379 147.059C225.379 146.556 225.732 146.352 226.168 146.603C226.603 146.855 226.956 147.466 226.956 147.969Z" fill="#FF2C9C"/>
<path d="M230.3 149.9C230.3 150.403 229.947 150.607 229.511 150.355C229.076 150.104 228.723 149.492 228.723 148.989C228.723 148.486 229.076 148.282 229.511 148.534C229.947 148.785 230.3 149.397 230.3 149.9Z" fill="#D4ECFF"/>
<path d="M233.644 151.83C233.644 152.333 233.291 152.537 232.855 152.286C232.42 152.034 232.066 151.422 232.066 150.919C232.066 150.417 232.42 150.213 232.855 150.464C233.291 150.716 233.644 151.327 233.644 151.83Z" fill="#4A90E2"/>
<path d="M226.956 173.046C226.956 173.549 226.603 173.753 226.168 173.501C225.732 173.25 225.379 172.638 225.379 172.135C225.379 171.632 225.732 171.428 226.168 171.68C226.603 171.931 226.956 172.543 226.956 173.046Z" fill="#4A90E2"/>
<path d="M230.3 174.976C230.3 175.479 229.947 175.683 229.511 175.432C229.076 175.18 228.723 174.569 228.723 174.066C228.723 173.563 229.076 173.359 229.511 173.61C229.947 173.862 230.3 174.473 230.3 174.976Z" fill="#FF2C9C"/>
<path d="M233.644 176.907C233.644 177.41 233.291 177.613 232.855 177.362C232.42 177.11 232.066 176.499 232.066 175.996C232.066 175.493 232.42 175.289 232.855 175.541C233.291 175.792 233.644 176.404 233.644 176.907Z" fill="#4A90E2"/>
<path d="M226.956 197.757C226.956 198.26 226.603 198.464 226.168 198.212C225.732 197.961 225.379 197.349 225.379 196.846C225.379 196.343 225.732 196.139 226.168 196.391C226.603 196.643 226.956 197.254 226.956 197.757Z" fill="#4A90E2"/>
<path d="M230.3 199.687C230.3 200.19 229.947 200.394 229.511 200.143C229.076 199.891 228.723 199.28 228.723 198.777C228.723 198.274 229.076 198.07 229.511 198.321C229.947 198.573 230.3 199.184 230.3 199.687Z" fill="#D4ECFF"/>
<path d="M233.644 201.618C233.644 202.121 233.291 202.325 232.855 202.073C232.42 201.822 232.066 201.21 232.066 200.707C232.066 200.204 232.42 200.001 232.855 200.252C233.291 200.504 233.644 201.115 233.644 201.618Z" fill="#D4ECFF"/>
<path d="M226.956 222.805C226.956 223.308 226.603 223.512 226.168 223.26C225.732 223.009 225.379 222.397 225.379 221.894C225.379 221.392 225.732 221.187 226.168 221.439C226.603 221.691 226.956 222.302 226.956 222.805Z" fill="#4A90E2"/>
<path d="M230.3 224.736C230.3 225.239 229.947 225.442 229.511 225.191C229.076 224.939 228.723 224.328 228.723 223.825C228.723 223.322 229.076 223.118 229.511 223.369C229.947 223.621 230.3 224.233 230.3 224.736Z" fill="#FF2C9C"/>
<path d="M233.644 226.666C233.644 227.169 233.291 227.373 232.855 227.122C232.42 226.87 232.066 226.258 232.066 225.755C232.066 225.252 232.42 225.048 232.855 225.3C233.291 225.551 233.644 226.163 233.644 226.666Z" fill="#D4ECFF"/>
<path d="M250.754 233.873V122.456L250.984 122.324L297.549 95.4395V206.857L297.318 206.989L250.754 233.873ZM251.676 122.989V232.275L296.626 206.323V97.0372L251.676 122.989Z" fill="#173D7A"/>
<path d="M285.452 145.569L264.574 157.624C263.171 158.433 262.034 157.574 262.034 155.704V144.128C262.034 142.258 263.171 140.085 264.574 139.276L285.452 127.221C286.855 126.412 287.992 127.271 287.992 129.141V140.717C287.992 142.587 286.855 144.76 285.452 145.569Z" fill="#173D7A"/>
<path d="M285.959 126.997C286.078 127.32 286.147 127.708 286.147 128.158V139.734C286.147 141.604 285.01 143.776 283.608 144.586L262.729 156.641C262.556 156.741 262.386 156.815 262.223 156.865C262.6 157.887 263.509 158.239 264.574 157.624L285.452 145.569C286.855 144.759 287.992 142.587 287.992 140.717V129.141C287.992 127.502 287.118 126.64 285.959 126.997Z" fill="#5793CE"/>
<path d="M281.638 138.598C282.025 138.375 282.337 138.556 282.337 139.001V141.638C282.337 142.084 282.025 142.626 281.638 142.849C281.252 143.071 280.939 142.891 280.939 142.445V139.808C280.939 139.362 281.252 138.821 281.638 138.598Z" fill="white"/>
<path d="M278.643 140.656C279.029 140.433 279.342 140.614 279.342 141.06V143.367C279.342 143.813 279.029 144.355 278.643 144.578C278.257 144.8 277.944 144.62 277.944 144.174V141.867C277.944 141.421 278.257 140.879 278.643 140.656Z" fill="#D4ECFF"/>
<path d="M275.648 139.811C276.034 139.588 276.347 139.769 276.347 140.215V145.096C276.347 145.542 276.034 146.084 275.648 146.307C275.262 146.53 274.949 146.349 274.949 145.904V141.022C274.949 140.576 275.262 140.034 275.648 139.811Z" fill="#FF2C9C"/>
<path d="M272.653 138.728C273.039 138.505 273.352 138.685 273.352 139.131V146.826C273.352 147.272 273.039 147.813 272.653 148.036C272.267 148.259 271.954 148.079 271.954 147.633V139.938C271.954 139.492 272.267 138.95 272.653 138.728Z" fill="#D4ECFF"/>
<path d="M269.658 141.264C270.044 141.041 270.357 141.222 270.357 141.667V148.555C270.357 149.001 270.044 149.543 269.658 149.765C269.272 149.988 268.959 149.808 268.959 149.362V142.474C268.959 142.028 269.272 141.487 269.658 141.264Z" fill="#D4ECFF"/>
<path d="M266.663 146.14C267.049 145.917 267.361 146.098 267.361 146.543V150.284C267.361 150.73 267.049 151.272 266.663 151.495C266.276 151.718 265.964 151.537 265.964 151.091V147.35C265.964 146.904 266.276 146.363 266.663 146.14Z" fill="white"/>
<path d="M280.951 137.266C280.951 137.704 281.259 137.882 281.638 137.662C282.018 137.443 282.326 136.91 282.326 136.472C282.326 136.034 282.018 135.856 281.638 136.075C281.259 136.294 280.951 136.828 280.951 137.266Z" fill="#FF2C9C"/>
<path d="M280.951 134.787C280.951 135.225 281.259 135.403 281.638 135.184C282.018 134.965 282.326 134.431 282.326 133.993C282.326 133.555 282.018 133.377 281.638 133.597C281.259 133.816 280.951 134.348 280.951 134.787Z" fill="white"/>
<path d="M114.08 247.811L82.1539 229.379C80.1945 228.248 80.4402 226.272 82.7027 224.965L113.53 207.167C115.792 205.861 119.215 205.719 121.174 206.85L153.1 225.283C155.059 226.414 154.814 228.39 152.551 229.696L121.724 247.494C119.462 248.801 116.039 248.942 114.08 247.811Z" fill="#7DC3EA"/>
<path d="M124.071 244.059C122.51 244.059 121.005 243.724 119.828 243.043H119.827L87.9016 224.611C86.4849 223.793 85.6728 222.522 85.6719 221.124C85.6719 219.558 86.6845 218.076 88.4498 217.057L119.277 199.259C122.129 197.612 126.194 197.474 128.734 198.942L160.662 217.375C162.078 218.193 162.89 219.463 162.89 220.861C162.89 222.427 161.877 223.909 160.111 224.928L129.286 242.726C127.755 243.61 125.876 244.059 124.071 244.059ZM121.64 239.903C123.049 240.715 125.772 240.567 127.472 239.586L158.298 221.788C159.074 221.341 159.26 220.936 159.264 220.86C159.253 220.838 159.149 220.689 158.849 220.515L126.921 202.082C125.515 201.27 122.791 201.418 121.09 202.4L90.2638 220.197C89.4886 220.644 89.3038 221.049 89.2991 221.125C89.3099 221.147 89.4138 221.296 89.7146 221.471L121.641 239.903H121.64Z" fill="#4A90E2"/>
<path d="M154.412 205.817V194.802L129.712 194.788L121.174 189.858C119.214 188.727 115.792 188.869 113.529 190.175L105.564 194.774L80.8407 194.76V206.09C80.7851 206.855 81.2119 207.594 82.1535 208.137L114.079 226.57C116.039 227.701 119.461 227.559 121.724 226.253L152.551 208.455C153.856 207.702 154.485 206.725 154.412 205.817Z" fill="#396CAA"/>
<path d="M117.627 189.101C116.193 189.135 114.705 189.497 113.529 190.175L105.564 194.774L80.8407 194.76V206.09C80.7851 206.855 81.2119 207.594 82.1535 208.138L114.079 226.57C115.021 227.114 116.301 227.36 117.627 227.328V189.101Z" fill="#5D91C7"/>
<path d="M114.571 226.811C116.261 227.535 118.706 227.495 120.682 226.741V213.878H114.571V226.811Z" fill="#5793CE"/>
<path d="M114.08 215.282L82.1539 196.85C80.1945 195.718 80.4402 193.742 82.7027 192.436L113.53 174.638C115.792 173.332 119.215 173.19 121.174 174.321L153.1 192.754C155.059 193.885 154.814 195.861 152.551 197.167L121.724 214.965C119.462 216.271 116.039 216.413 114.08 215.282Z" fill="#CCE7FC"/>
<path d="M152.551 194.999L121.724 212.797C119.461 214.103 116.039 214.245 114.079 213.114L82.1535 194.682C81.7165 194.43 81.3955 194.134 81.176 193.814C80.5028 194.898 80.8079 196.073 82.1535 196.85L114.079 215.282C116.039 216.413 119.461 216.271 121.724 214.965L152.551 197.167C154.309 196.152 154.843 194.734 154.077 193.621C153.77 194.115 153.259 194.59 152.551 194.999Z" fill="#4A90E2"/>
<path d="M142.67 208.724C142.67 209.547 142.093 210.547 141.38 210.958C140.668 211.369 140.091 211.035 140.091 210.213C140.091 209.391 140.668 208.391 141.38 207.98C142.093 207.569 142.67 207.902 142.67 208.724Z" fill="#D4ECFF"/>
<path d="M146.818 206.329C146.818 207.151 146.241 208.151 145.529 208.562C144.817 208.973 144.239 208.64 144.239 207.818C144.239 206.996 144.817 205.996 145.529 205.585C146.241 205.173 146.818 205.507 146.818 206.329Z" fill="#D4ECFF"/>
<path d="M150.968 203.933C150.968 204.756 150.39 205.756 149.678 206.167C148.966 206.578 148.389 206.245 148.389 205.423C148.389 204.6 148.966 203.6 149.678 203.189C150.39 202.778 150.968 203.111 150.968 203.933Z" fill="#D4ECFF"/>
<path d="M115.968 203.854L101.028 195.229C100.111 194.7 100.226 193.775 101.285 193.163L115.71 184.835C116.769 184.224 118.371 184.157 119.288 184.686L134.227 193.312C135.144 193.841 135.029 194.766 133.97 195.377L119.545 203.706C118.486 204.317 116.885 204.384 115.968 203.854Z" fill="#5793CE"/>
<path d="M117.398 196.632L115.331 195.439C115.204 195.366 115.22 195.238 115.366 195.153L117.362 194.001C117.509 193.916 117.73 193.907 117.857 193.98L119.924 195.174C120.051 195.247 120.035 195.375 119.889 195.459L117.893 196.612C117.746 196.696 117.525 196.705 117.398 196.632Z" fill="#D4ECFF"/>
<path d="M101.028 195.229L101.07 195.253C101.14 195.203 101.204 195.152 101.285 195.105L115.71 186.777C116.769 186.166 118.371 186.099 119.288 186.629L134.185 195.23C135.03 194.625 135.074 193.801 134.227 193.312L119.288 184.686C118.371 184.157 116.769 184.224 115.71 184.835L101.285 193.163C100.226 193.775 100.111 194.699 101.028 195.229Z" fill="#396CAA"/>
<path d="M130.752 304.911L113.154 294.751L130.752 284.591L148.35 294.751L130.752 304.911Z" fill="#7DC3EA"/>
<path d="M130.752 299.346C130.478 299.346 130.204 299.274 129.959 299.132L109.061 287.067C108.569 286.783 108.266 286.258 108.266 285.691C108.266 285.124 108.569 284.599 109.061 284.315L129.958 272.25C130.449 271.967 131.054 271.967 131.546 272.25L152.444 284.315C152.935 284.599 153.238 285.124 153.238 285.691C153.238 286.258 152.936 286.783 152.444 287.067L131.546 299.132C131.301 299.274 131.027 299.346 130.752 299.346ZM113.032 285.691L130.752 295.922L148.472 285.691L130.752 275.461L113.032 285.691Z" fill="#4A90E2"/>
<path d="M130.753 271.335L109.855 259.27V235.141L130.753 247.206V271.335Z" fill="#396CAA"/>
<path d="M151.65 259.27L130.753 271.335V247.206L151.65 235.141V259.27Z" fill="#214883"/>
<path d="M130.753 247.206L109.855 235.141L130.752 223.076L151.649 235.141L130.753 247.206Z" fill="#CCE7FC"/>
<path d="M123.227 258.3L117.382 254.926V248.177L123.227 251.551V258.3Z" fill="#4A90E2"/>
<path d="M364.145 175.454L346.547 165.294L364.144 155.134L381.743 165.294L364.145 175.454Z" fill="#7DC3EA"/>
<path d="M364.145 169.888C363.87 169.888 363.597 169.817 363.351 169.675L342.453 157.609C341.962 157.325 341.658 156.801 341.658 156.233C341.658 155.666 341.962 155.141 342.453 154.857L363.35 142.793C363.842 142.509 364.447 142.509 364.938 142.793L385.836 154.857C386.327 155.141 386.631 155.666 386.631 156.233C386.631 156.801 386.328 157.325 385.836 157.609L364.939 169.675C364.693 169.817 364.42 169.888 364.145 169.888ZM346.424 156.233L364.145 166.464L381.865 156.233L364.144 146.004L346.424 156.233Z" fill="#4A90E2"/>
<path d="M364.144 141.878L343.247 129.813V105.683L364.144 117.748V141.878Z" fill="#396CAA"/>
<path d="M385.042 129.813L364.145 141.878V117.748L385.042 105.683V129.813Z" fill="#214883"/>
<path d="M364.144 117.748L343.247 105.683L364.144 93.6189L385.041 105.684L364.144 117.748Z" fill="#CCE7FC"/>
<path d="M356.618 128.842L350.773 125.468V118.719L356.618 122.093V128.842Z" fill="#4A90E2"/>
<path d="M361.903 249.217L329.977 230.785C328.018 229.654 328.263 227.678 330.526 226.371L361.353 208.573C363.615 207.267 367.038 207.125 368.997 208.256L400.923 226.689C402.883 227.82 402.637 229.796 400.374 231.102L369.547 248.9C367.285 250.207 363.862 250.348 361.903 249.217Z" fill="#7DC3EA"/>
<path d="M359.616 244.059C358.055 244.059 356.55 243.724 355.373 243.043H355.372L323.446 224.611C322.03 223.793 321.218 222.522 321.217 221.124C321.217 219.558 322.229 218.076 323.995 217.057L354.822 199.259C357.674 197.612 361.739 197.474 364.279 198.942L396.207 217.375C397.623 218.193 398.435 219.463 398.435 220.861C398.435 222.427 397.422 223.909 395.656 224.928L364.83 242.726C363.3 243.61 361.421 244.059 359.616 244.059ZM357.185 239.903C358.594 240.715 361.317 240.567 363.017 239.586L393.843 221.788C394.619 221.341 394.805 220.936 394.809 220.86C394.798 220.838 394.694 220.689 394.393 220.515L362.466 202.082C361.06 201.27 358.336 201.418 356.635 202.4L325.809 220.197C325.033 220.644 324.849 221.049 324.844 221.125C324.855 221.147 324.959 221.296 325.259 221.471L357.186 239.903H357.185Z" fill="#4A90E2"/>
<path d="M402.236 207.223V196.208L377.535 196.194L368.997 191.264C367.038 190.133 363.615 190.275 361.352 191.581L353.387 196.18L328.664 196.166V207.496C328.608 208.261 329.035 209 329.977 209.543L361.903 227.976C363.862 229.107 367.284 228.965 369.547 227.659L400.374 209.861C401.679 209.108 402.309 208.131 402.236 207.223Z" fill="#396CAA"/>
<path d="M365.45 190.507C364.016 190.541 362.528 190.903 361.352 191.581L353.387 196.18L328.664 196.166V207.496C328.608 208.261 329.035 209 329.977 209.544L361.903 227.976C362.844 228.52 364.124 228.766 365.45 228.734V190.507Z" fill="#5D91C7"/>
<path d="M362.395 228.217C364.085 228.941 366.529 228.901 368.505 228.147V215.284H362.395V228.217Z" fill="#5793CE"/>
<path d="M361.903 216.688L329.977 198.256C328.018 197.124 328.263 195.148 330.526 193.842L361.353 176.044C363.615 174.738 367.038 174.596 368.997 175.727L400.923 194.16C402.883 195.291 402.637 197.267 400.374 198.573L369.547 216.371C367.285 217.677 363.862 217.819 361.903 216.688Z" fill="#CCE7FC"/>
<path d="M400.374 196.405L369.547 214.203C367.284 215.509 363.862 215.651 361.903 214.52L329.977 196.088C329.54 195.836 329.219 195.54 328.999 195.22C328.326 196.304 328.631 197.479 329.977 198.256L361.903 216.688C363.862 217.819 367.284 217.677 369.547 216.371L400.374 198.573C402.132 197.558 402.666 196.14 401.9 195.027C401.593 195.521 401.083 195.996 400.374 196.405Z" fill="#4A90E2"/>
<path d="M390.493 210.13C390.493 210.953 389.916 211.953 389.204 212.364C388.492 212.775 387.914 212.441 387.914 211.619C387.914 210.797 388.492 209.797 389.204 209.386C389.916 208.975 390.493 209.308 390.493 210.13Z" fill="#D4ECFF"/>
<path d="M394.642 207.735C394.642 208.557 394.064 209.557 393.352 209.968C392.64 210.379 392.062 210.046 392.062 209.224C392.062 208.402 392.64 207.402 393.352 206.991C394.064 206.579 394.642 206.913 394.642 207.735Z" fill="#D4ECFF"/>
<path d="M398.791 205.339C398.791 206.162 398.214 207.162 397.502 207.573C396.789 207.984 396.212 207.651 396.212 206.829C396.212 206.006 396.789 205.006 397.502 204.595C398.214 204.184 398.791 204.517 398.791 205.339Z" fill="#D4ECFF"/>
<path d="M363.791 205.26L348.851 196.635C347.935 196.106 348.05 195.181 349.108 194.569L363.534 186.241C364.592 185.63 366.194 185.563 367.111 186.092L382.05 194.718C382.967 195.247 382.852 196.172 381.794 196.783L367.368 205.112C366.309 205.723 364.708 205.79 363.791 205.26Z" fill="#5793CE"/>
<path d="M365.221 198.038L363.154 196.845C363.027 196.772 363.043 196.644 363.19 196.559L365.185 195.407C365.332 195.322 365.553 195.313 365.68 195.386L367.748 196.58C367.874 196.653 367.858 196.781 367.712 196.866L365.716 198.018C365.569 198.102 365.348 198.111 365.221 198.038Z" fill="#D4ECFF"/>
<path d="M348.851 196.635L348.894 196.659C348.963 196.609 349.028 196.558 349.108 196.511L363.534 188.183C364.592 187.572 366.194 187.505 367.111 188.035L382.008 196.636C382.853 196.031 382.898 195.207 382.05 194.718L367.111 186.092C366.194 185.563 364.592 185.63 363.534 186.241L349.108 194.569C348.05 195.181 347.935 196.105 348.851 196.635Z" fill="#396CAA"/>
<path d="M355.535 304.911L337.937 294.751L355.534 284.591L373.132 294.751L355.535 304.911Z" fill="#7DC3EA"/>
<path d="M355.535 299.346C355.26 299.346 354.986 299.274 354.741 299.132L333.843 287.067C333.351 286.783 333.048 286.258 333.048 285.691C333.048 285.124 333.351 284.599 333.843 284.315L354.74 272.25C355.231 271.967 355.836 271.967 356.328 272.25L377.226 284.315C377.717 284.599 378.021 285.124 378.021 285.691C378.021 286.258 377.718 286.783 377.226 287.067L356.329 299.132C356.083 299.274 355.809 299.346 355.535 299.346ZM337.814 285.691L355.535 295.922L373.254 285.691L355.534 275.461L337.814 285.691Z" fill="#4A90E2"/>
<path d="M355.535 271.335L334.638 259.27V235.141L355.535 247.206V271.335Z" fill="#396CAA"/>
<path d="M376.432 259.27L355.535 271.335V247.206L376.432 235.141V259.27Z" fill="#214883"/>
<path d="M355.535 247.206L334.638 235.141L355.534 223.076L376.431 235.141L355.535 247.206Z" fill="#CCE7FC"/>
<path d="M348.009 258.3L342.164 254.926V248.177L348.009 251.551V258.3Z" fill="#4A90E2"/>
<path d="M254.179 340.146L222.253 321.714C220.294 320.583 220.54 318.607 222.802 317.301L253.629 299.503C255.892 298.196 259.314 298.055 261.274 299.186L293.2 317.618C295.159 318.75 294.913 320.725 292.651 322.032L261.824 339.83C259.561 341.136 256.139 341.278 254.179 340.146Z" fill="#7DC3EA"/>
<path d="M242.305 325.546C240.743 325.546 239.239 325.211 238.061 324.531H238.061L206.135 306.098C204.718 305.281 203.906 304.01 203.905 302.611C203.905 301.046 204.918 299.563 206.683 298.544L237.51 280.747C240.362 279.099 244.428 278.962 246.968 280.43L278.895 298.862C280.311 299.68 281.124 300.951 281.124 302.348C281.124 303.914 280.111 305.396 278.345 306.415L247.519 324.214C245.988 325.097 244.11 325.546 242.305 325.546ZM239.874 321.391C241.283 322.203 244.006 322.055 245.705 321.074L276.532 303.275C277.307 302.828 277.493 302.423 277.497 302.347C277.487 302.326 277.383 302.177 277.082 302.002L245.155 283.57C243.748 282.757 241.025 282.905 239.323 283.887L208.497 301.684C207.722 302.132 207.537 302.536 207.533 302.612C207.543 302.635 207.647 302.784 207.948 302.958L239.874 321.391H239.874Z" fill="#4A90E2"/>
<path d="M294.512 298.153V287.137L269.811 287.123L261.273 282.194C259.314 281.062 255.891 281.204 253.629 282.511L245.663 287.11L220.94 287.096V298.425C220.885 299.191 221.312 299.93 222.253 300.473L254.179 318.905C256.138 320.037 259.561 319.895 261.823 318.588L292.65 300.791C293.955 300.037 294.585 299.061 294.512 298.153Z" fill="#396CAA"/>
<path d="M257.727 281.436C256.293 281.471 254.804 281.832 253.629 282.511L245.663 287.11L220.94 287.096V298.425C220.885 299.191 221.312 299.93 222.253 300.473L254.179 318.906C255.121 319.449 256.4 319.695 257.727 319.663V281.436Z" fill="#5D91C7"/>
<path d="M254.671 319.146C256.361 319.87 258.806 319.83 260.782 319.076V306.213H254.671V319.146Z" fill="#5793CE"/>
<path d="M254.179 307.617L222.253 289.185C220.294 288.054 220.54 286.078 222.802 284.771L253.629 266.973C255.892 265.667 259.314 265.525 261.274 266.657L293.2 285.089C295.159 286.22 294.913 288.196 292.651 289.502L261.824 307.3C259.561 308.607 256.139 308.748 254.179 307.617Z" fill="#CCE7FC"/>
<path d="M292.65 287.335L261.823 305.133C259.561 306.439 256.138 306.581 254.179 305.45L222.253 287.017C221.816 286.765 221.495 286.469 221.276 286.15C220.602 287.233 220.907 288.408 222.253 289.185L254.179 307.617C256.138 308.749 259.561 308.607 261.823 307.3L292.65 289.502C294.408 288.487 294.942 287.069 294.177 285.956C293.87 286.45 293.359 286.926 292.65 287.335Z" fill="#4A90E2"/>
<path d="M282.769 301.06C282.769 301.882 282.192 302.882 281.48 303.293C280.768 303.704 280.19 303.371 280.19 302.549C280.19 301.726 280.768 300.726 281.48 300.315C282.192 299.904 282.769 300.237 282.769 301.06Z" fill="#D4ECFF"/>
<path d="M286.918 298.664C286.918 299.487 286.341 300.487 285.629 300.898C284.916 301.309 284.339 300.976 284.339 300.153C284.339 299.331 284.916 298.331 285.629 297.92C286.341 297.509 286.918 297.842 286.918 298.664Z" fill="#D4ECFF"/>
<path d="M291.067 296.269C291.067 297.091 290.49 298.091 289.778 298.502C289.066 298.913 288.488 298.58 288.488 297.758C288.488 296.936 289.066 295.936 289.778 295.524C290.49 295.113 291.067 295.447 291.067 296.269Z" fill="#D4ECFF"/>
<path d="M256.067 296.19L241.128 287.564C240.211 287.035 240.326 286.11 241.385 285.499L255.81 277.17C256.869 276.559 258.47 276.492 259.387 277.022L274.327 285.647C275.244 286.177 275.129 287.101 274.07 287.713L259.645 296.041C258.586 296.653 256.984 296.719 256.067 296.19Z" fill="#5793CE"/>
<path d="M257.497 288.968L255.43 287.774C255.303 287.701 255.319 287.573 255.466 287.489L257.462 286.336C257.608 286.252 257.83 286.243 257.957 286.316L260.024 287.509C260.151 287.582 260.135 287.71 259.988 287.795L257.992 288.947C257.846 289.032 257.624 289.041 257.497 288.968Z" fill="#D4ECFF"/>
<path d="M241.128 287.564L241.17 287.589C241.239 287.539 241.304 287.487 241.385 287.441L255.81 279.113C256.869 278.501 258.47 278.435 259.387 278.964L274.285 287.565C275.13 286.96 275.174 286.137 274.327 285.647L259.387 277.022C258.47 276.492 256.869 276.559 255.81 277.17L241.385 285.499C240.326 286.11 240.211 287.035 241.128 287.564Z" fill="#396CAA"/>
<path d="M128.446 175.454L110.848 165.294L128.445 155.134L146.043 165.294L128.446 175.454Z" fill="#7DC3EA"/>
<path d="M128.446 169.888C128.171 169.888 127.898 169.817 127.652 169.675L106.754 157.609C106.262 157.325 105.959 156.801 105.959 156.233C105.959 155.666 106.262 155.141 106.754 154.857L127.651 142.793C128.142 142.509 128.747 142.509 129.239 142.793L150.137 154.857C150.628 155.141 150.932 155.666 150.932 156.233C150.932 156.801 150.629 157.325 150.137 157.609L129.24 169.675C128.994 169.817 128.72 169.888 128.446 169.888ZM110.725 156.233L128.446 166.464L146.166 156.233L128.445 146.004L110.725 156.233Z" fill="#4A90E2"/>
<path d="M128.446 141.878L107.549 129.813V105.683L128.446 117.748V141.878Z" fill="#396CAA"/>
<path d="M149.343 129.813L128.446 141.878V117.748L149.343 105.683V129.813Z" fill="#214883"/>
<path d="M128.446 117.748L107.549 105.683L128.445 93.6189L149.342 105.684L128.446 117.748Z" fill="#CCE7FC"/>
<path d="M120.92 128.842L115.075 125.468V118.719L120.92 122.093V128.842Z" fill="#4A90E2"/>
</g>
</g>
<defs>
<linearGradient id="paint0_linear_1585_2288" x1="-95.693" y1="608.002" x2="-35.5527" y2="626.658" gradientUnits="userSpaceOnUse">
<stop stop-color="#3919BB"/>
<stop offset="0.5" stop-color="#4F10DB"/>
<stop offset="1" stop-color="#6507FA"/>
</linearGradient>
<linearGradient id="paint1_linear_1585_2288" x1="-95.693" y1="608.002" x2="-35.5527" y2="626.658" gradientUnits="userSpaceOnUse">
<stop stop-color="#3919BB"/>
<stop offset="0.5" stop-color="#4F10DB"/>
<stop offset="1" stop-color="#6507FA"/>
</linearGradient>
<clipPath id="clip0_1585_2288">
<rect width="492" height="369" rx="180" fill="white"/>
</clipPath>
</defs>
</svg>
